<?xml version="1.0" encoding="UTF-8" standalone="no"?><svg xmlns="http://www.w3.org/2000/svg" xmlns:xlink="http://www.w3.org/1999/xlink" contentScriptType="application/ecmascript" contentStyleType="text/css" height="672px" preserveAspectRatio="none" style="width:518px;height:672px;" version="1.1" viewBox="0 0 518 672" width="518px" zoomAndPan="magnify"><defs><filter height="300%" id="fm1nam45fomfu" width="300%" x="-1" y="-1"><feGaussianBlur result="blurOut" stdDeviation="2.0"/><feColorMatrix in="blurOut" result="blurOut2" type="matrix" values="0 0 0 0 0 0 0 0 0 0 0 0 0 0 0 0 0 0 .4 0"/><feOffset dx="4.0" dy="4.0" in="blurOut2" result="blurOut3"/><feBlend in="SourceGraphic" in2="blurOut3" mode="normal"/></filter></defs><g><g id="CollectResources"><rect fill="#FEFECE" filter="url(#fm1nam45fomfu)" height="50.2656" rx="12.5" ry="12.5" style="stroke: #A80036; stroke-width: 1.5;" width="146" x="202" y="89"/><line style="stroke: #A80036; stroke-width: 1.5;" x1="202" x2="348" y1="115.2969" y2="115.2969"/><text fill="#000000" font-family="sans-serif" font-size="14" lengthAdjust="spacingAndGlyphs" textLength="126" x="212" y="106.9951">Collect Resources</text><text fill="#000000" font-family="sans-serif" font-size="12" lengthAdjust="spacingAndGlyphs" textLength="60" x="207" y="131.4355">Idle State</text></g><g id="CollectWood"><rect fill="#FEFECE" filter="url(#fm1nam45fomfu)" height="50.2656" rx="12.5" ry="12.5" style="stroke: #A80036; stroke-width: 1.5;" width="139" x="61.5" y="231"/><line style="stroke: #A80036; stroke-width: 1.5;" x1="61.5" x2="200.5" y1="257.2969" y2="257.2969"/><text fill="#000000" font-family="sans-serif" font-size="14" lengthAdjust="spacingAndGlyphs" textLength="91" x="85.5" y="248.9951">Collect Wood</text><text fill="#000000" font-family="sans-serif" font-size="12" lengthAdjust="spacingAndGlyphs" textLength="119" x="66.5" y="273.4355">Collect Wood State</text></g><g id="CollectOre"><rect fill="#FEFECE" filter="url(#fm1nam45fomfu)" height="50.2656" rx="12.5" ry="12.5" style="stroke: #A80036; stroke-width: 1.5;" width="126" x="236" y="231"/><line style="stroke: #A80036; stroke-width: 1.5;" x1="236" x2="362" y1="257.2969" y2="257.2969"/><text fill="#000000" font-family="sans-serif" font-size="14" lengthAdjust="spacingAndGlyphs" textLength="76" x="261" y="248.9951">Collect Ore</text><text fill="#000000" font-family="sans-serif" font-size="12" lengthAdjust="spacingAndGlyphs" textLength="106" x="241" y="273.4355">Collect Ore State</text></g><g id="ProtectSelf"><rect fill="#FEFECE" filter="url(#fm1nam45fomfu)" height="50" rx="12.5" ry="12.5" style="stroke: #A80036; stroke-width: 1.5;" width="99" x="130.5" y="373"/><line style="stroke: #A80036; stroke-width: 1.5;" x1="130.5" x2="229.5" y1="399.2969" y2="399.2969"/><text fill="#000000" font-family="sans-serif" font-size="14" lengthAdjust="spacingAndGlyphs" textLength="79" x="140.5" y="390.9951">Protect Self</text></g><g id="Eat"><rect fill="#FEFECE" filter="url(#fm1nam45fomfu)" height="50" rx="12.5" ry="12.5" style="stroke: #A80036; stroke-width: 1.5;" width="50" x="10" y="611"/><line style="stroke: #A80036; stroke-width: 1.5;" x1="10" x2="60" y1="637.2969" y2="637.2969"/><text fill="#000000" font-family="sans-serif" font-size="14" lengthAdjust="spacingAndGlyphs" textLength="22" x="24" y="628.9951">Eat</text></g><ellipse cx="275" cy="18" fill="#000000" filter="url(#fm1nam45fomfu)" rx="10" ry="10" style="stroke: none; stroke-width: 1.0;"/><ellipse cx="478" cy="256" fill="none" filter="url(#fm1nam45fomfu)" rx="10" ry="10" style="stroke: #000000; stroke-width: 1.0;"/><ellipse cx="478.5" cy="256.5" fill="#000000" rx="6" ry="6" style="stroke: none; stroke-width: 1.0;"/><g id="FinishCollecting"><rect fill="#FEFECE" filter="url(#fm1nam45fomfu)" height="50.2656" rx="12.5" ry="12.5" style="stroke: #A80036; stroke-width: 1.5;" width="132" x="114" y="484"/><line style="stroke: #A80036; stroke-width: 1.5;" x1="114" x2="246" y1="510.2969" y2="510.2969"/><text fill="#000000" font-family="sans-serif" font-size="14" lengthAdjust="spacingAndGlyphs" textLength="112" x="124" y="501.9951">Finish Collecting</text><text fill="#000000" font-family="sans-serif" font-size="12" lengthAdjust="spacingAndGlyphs" textLength="60" x="119" y="526.4355">Idle State</text></g><!--MD5=[39ab48516ee58f516f6dcb81fca8f221]
link *start to CollectResources--><path d="M275,28.01 C275,40.7 275,64.41 275,83.57 " fill="none" id="*start-&gt;CollectResources" style="stroke: #A80036; stroke-width: 1.0;"/><polygon fill="#A80036" points="275,88.84,279,79.84,275,83.84,271,79.84,275,88.84" style="stroke: #A80036; stroke-width: 1.0;"/><!--MD5=[c9f4a6a9342f60cd7ee541061ff9121a]
link CollectResources to *end--><path d="M348.17,125.64 C379.2,133.32 413.91,146.47 439,169 C460.63,188.42 471.01,222.2 475.34,241.13 " fill="none" id="CollectResources-&gt;*end" style="stroke: #A80036; stroke-width: 1.0;"/><polygon fill="#A80036" points="476.41,246.05,478.4162,236.4076,475.3526,241.1631,470.5971,238.0995,476.41,246.05" style="stroke: #A80036; stroke-width: 1.0;"/><text fill="#000000" font-family="sans-serif" font-size="13" lengthAdjust="spacingAndGlyphs" textLength="43" x="463" y="189.5669">If done</text><!--MD5=[d783ac96394c326df77a3460cad4f546]
link CollectResources to CollectOre--><path d="M279.13,139.07 C283.25,163.11 289.59,200.09 293.99,225.79 " fill="none" id="CollectResources-&gt;CollectOre" style="stroke: #A80036; stroke-width: 1.0;"/><polygon fill="#A80036" points="294.85,230.78,297.2488,221.2277,293.9933,225.8539,289.3671,222.5985,294.85,230.78" style="stroke: #A80036; stroke-width: 1.0;"/><text fill="#000000" font-family="sans-serif" font-size="13" lengthAdjust="spacingAndGlyphs" textLength="43" x="291" y="182.0669">If need</text><text fill="#000000" font-family="sans-serif" font-size="13" lengthAdjust="spacingAndGlyphs" textLength="21" x="302" y="197.1997">ore</text><!--MD5=[cd28c6ca98bf38153bb1ccb1018d5e3a]
link CollectOre to FinishCollecting--><path d="M293.95,281.33 C290.13,298.68 284.45,322.47 278,343 C266.56,379.38 265.9,389.88 247,423 C235.41,443.31 219.25,463.96 205.71,479.82 " fill="none" id="CollectOre-&gt;FinishCollecting" style="stroke: #A80036; stroke-width: 1.0;"/><polygon fill="#A80036" points="202.33,483.75,211.232,479.5364,205.591,479.9598,205.1677,474.3188,202.33,483.75" style="stroke: #A80036; stroke-width: 1.0;"/><text fill="#000000" font-family="sans-serif" font-size="13" lengthAdjust="spacingAndGlyphs" textLength="60" x="270" y="402.5669">If finished</text><!--MD5=[25f72e5ade9e2d924446ecf99d1f3f32]
link CollectOre to ProtectSelf--><path d="M260.54,281.17 C248.88,289.67 236.62,299.9 227,311 C212.34,327.93 200.33,350.19 192.12,367.81 " fill="none" id="CollectOre-&gt;ProtectSelf" style="stroke: #A80036; stroke-width: 1.0;"/><polygon fill="#A80036" points="189.91,372.66,197.2926,366.141,191.9908,368.1136,190.0183,362.8117,189.91,372.66" style="stroke: #A80036; stroke-width: 1.0;"/><text fill="#000000" font-family="sans-serif" font-size="13" lengthAdjust="spacingAndGlyphs" textLength="22" x="239.5" y="324.0669">If in</text><text fill="#000000" font-family="sans-serif" font-size="13" lengthAdjust="spacingAndGlyphs" textLength="45" x="228" y="339.1997">danger</text><!--MD5=[0ad836b0ac4076492f07d0db6a19047e]
link CollectResources to CollectWood--><path d="M201.83,135.32 C184.08,143.3 166.61,154.21 154,169 C140.52,184.8 134.86,207.71 132.52,225.91 " fill="none" id="CollectResources-&gt;CollectWood" style="stroke: #A80036; stroke-width: 1.0;"/><polygon fill="#A80036" points="131.94,230.91,136.9416,222.4256,132.511,225.9427,128.9939,221.5121,131.94,230.91" style="stroke: #A80036; stroke-width: 1.0;"/><text fill="#000000" font-family="sans-serif" font-size="13" lengthAdjust="spacingAndGlyphs" textLength="43" x="155" y="182.0669">If need</text><text fill="#000000" font-family="sans-serif" font-size="13" lengthAdjust="spacingAndGlyphs" textLength="33" x="160" y="197.1997">wood</text><!--MD5=[f90280c959db2358a233f22edfd74559]
link CollectWood to CollectResources--><path d="M166.36,230.99 C178.46,222.13 191.77,211.64 203,201 C221.63,183.34 240.17,161.06 253.76,143.61 " fill="none" id="CollectWood-&gt;CollectResources" style="stroke: #A80036; stroke-width: 1.0;"/><polygon fill="#A80036" points="257.11,139.28,248.4423,143.9567,254.0532,143.2367,254.7731,148.8476,257.11,139.28" style="stroke: #A80036; stroke-width: 1.0;"/><!--MD5=[424e63a8803002730bd05622721578ec]
link CollectWood to FinishCollecting--><path d="M122.02,281.1 C111.15,314.07 96.24,374.66 113,423 C120.49,444.6 136,464.87 150.21,480.2 " fill="none" id="CollectWood-&gt;FinishCollecting" style="stroke: #A80036; stroke-width: 1.0;"/><polygon fill="#A80036" points="153.79,483.99,150.5345,474.6947,150.3632,480.349,144.7089,480.1777,153.79,483.99" style="stroke: #A80036; stroke-width: 1.0;"/><!--MD5=[929d05ae0030dff34d6c589b10174b75]
link CollectWood to ProtectSelf--><path d="M129.34,281.18 C128.98,298.88 130.29,323.18 138,343 C141.53,352.06 147.09,360.84 153.03,368.61 " fill="none" id="CollectWood-&gt;ProtectSelf" style="stroke: #A80036; stroke-width: 1.0;"/><polygon fill="#A80036" points="156.36,372.81,153.9081,363.2712,153.2558,368.8904,147.6366,368.238,156.36,372.81" style="stroke: #A80036; stroke-width: 1.0;"/><text fill="#000000" font-family="sans-serif" font-size="13" lengthAdjust="spacingAndGlyphs" textLength="22" x="150.5" y="324.0669">If in</text><text fill="#000000" font-family="sans-serif" font-size="13" lengthAdjust="spacingAndGlyphs" textLength="45" x="139" y="339.1997">danger</text><!--MD5=[82d82c251f31e3f7f06203ede301a4f3]
link ProtectSelf to FinishCollecting--><path d="M180,423.19 C180,439.56 180,461.28 180,478.64 " fill="none" id="ProtectSelf-&gt;FinishCollecting" style="stroke: #A80036; stroke-width: 1.0;"/><polygon fill="#A80036" points="180,483.88,184,474.88,180,478.88,176,474.88,180,483.88" style="stroke: #A80036; stroke-width: 1.0;"/><!--MD5=[b00032d5acdcde3f6e8ab86b348957d4]
link FinishCollecting to CollectResources--><path d="M246.22,486.64 C278.45,473.12 315.27,452.52 339,423 C380.09,371.9 370.03,345.95 379,281 C386.16,229.21 377.2,208.55 343,169 C334.64,159.33 324.37,150.15 314.36,142.19 " fill="none" id="FinishCollecting-&gt;CollectResources" style="stroke: #A80036; stroke-width: 1.0;"/><polygon fill="#A80036" points="310.39,139.08,314.997,147.7849,314.3221,142.1685,319.9385,141.4936,310.39,139.08" style="stroke: #A80036; stroke-width: 1.0;"/><text fill="#000000" font-family="sans-serif" font-size="13" lengthAdjust="spacingAndGlyphs" textLength="32" x="383" y="324.0669">If not</text><text fill="#000000" font-family="sans-serif" font-size="13" lengthAdjust="spacingAndGlyphs" textLength="44" x="377" y="339.1997">hungry</text><!--MD5=[3262b01ae6e2ee9c4aff6ccddee860db]
link FinishCollecting to Eat--><path d="M152.04,534.1 C126.89,555.79 90.06,587.54 64.45,609.61 " fill="none" id="FinishCollecting-&gt;Eat" style="stroke: #A80036; stroke-width: 1.0;"/><polygon fill="#A80036" points="60.44,613.07,69.8712,610.2323,64.2302,609.809,64.6536,604.168,60.44,613.07" style="stroke: #A80036; stroke-width: 1.0;"/><text fill="#000000" font-family="sans-serif" font-size="13" lengthAdjust="spacingAndGlyphs" textLength="55" x="118" y="577.0669">If hungry</text><!--MD5=[7eb4e1ba2ccabfe329b6cad524bffd7e]
link Eat to CollectResources--><path d="M25.98,610.95 C17.47,586.06 6,545.87 6,510 C6,255 6,255 6,255 C6,168.32 117.25,135.23 196.67,122.65 " fill="none" id="Eat-&gt;CollectResources" style="stroke: #A80036; stroke-width: 1.0;"/><polygon fill="#A80036" points="201.85,121.85,192.3408,119.2857,196.9098,122.621,193.5745,127.19,201.85,121.85" style="stroke: #A80036; stroke-width: 1.0;"/><!--MD5=[ed342ce9b5cc5d11b87187334d051552]
@startuml "Collect Resources"

state "Collect Resources" as CollectResources : Idle State
state "Collect Wood" as CollectWood : Collect Wood State
state "Collect Ore" as CollectOre : Collect Ore State
state "Protect Self" as ProtectSelf
state "Eat" as Eat

[*] - -> CollectResources
CollectResources - -> [*] : If done

state "Finish Collecting" as FinishCollecting : Idle State
CollectResources - -> CollectOre : If need\nore
CollectOre - -> FinishCollecting : If finished
CollectOre - -> ProtectSelf : If in\ndanger

CollectResources - -> CollectWood : If need\nwood
CollectWood - -> CollectResources
CollectWood - -> FinishCollecting
CollectWood - -> ProtectSelf : If in\ndanger

ProtectSelf - -> FinishCollecting
FinishCollecting - -> CollectResources : If not\nhungry
FinishCollecting - -> Eat : If hungry
Eat - -> CollectResources

@enduml

PlantUML version 1.2020.10(Sun May 17 02:35:57 MST 2020)
(GPL source distribution)
Java Runtime: OpenJDK Runtime Environment
JVM: OpenJDK 64-Bit Server VM
Java Version: 14.0.1+7
Operating System: Linux
Default Encoding: UTF-8
Language: en
Country: US
--></g></svg>