<?xml version="1.0" encoding="UTF-8" standalone="no"?><svg xmlns="http://www.w3.org/2000/svg" xmlns:xlink="http://www.w3.org/1999/xlink" contentScriptType="application/ecmascript" contentStyleType="text/css" height="767px" preserveAspectRatio="none" style="width:388px;height:767px;" version="1.1" viewBox="0 0 388 767" width="388px" zoomAndPan="magnify"><defs><filter height="300%" id="f1r9xsfbz3khyg" width="300%" x="-1" y="-1"><feGaussianBlur result="blurOut" stdDeviation="2.0"/><feColorMatrix in="blurOut" result="blurOut2" type="matrix" values="0 0 0 0 0 0 0 0 0 0 0 0 0 0 0 0 0 0 .4 0"/><feOffset dx="4.0" dy="4.0" in="blurOut2" result="blurOut3"/><feBlend in="SourceGraphic" in2="blurOut3" mode="normal"/></filter></defs><g><g id="TryCollectBlock"><rect fill="#FEFECE" filter="url(#f1r9xsfbz3khyg)" height="50" rx="12.5" ry="12.5" style="stroke: #A80036; stroke-width: 1.5;" width="134" x="180.5" y="89"/><line style="stroke: #A80036; stroke-width: 1.5;" x1="180.5" x2="314.5" y1="115.2969" y2="115.2969"/><text fill="#000000" font-family="sans-serif" font-size="14" lengthAdjust="spacingAndGlyphs" textLength="114" x="190.5" y="106.9951">Try Collect Block</text></g><g id="MoveToBlock"><rect fill="#FEFECE" filter="url(#f1r9xsfbz3khyg)" height="50" rx="12.5" ry="12.5" style="stroke: #A80036; stroke-width: 1.5;" width="117" x="42" y="231"/><line style="stroke: #A80036; stroke-width: 1.5;" x1="42" x2="159" y1="257.2969" y2="257.2969"/><text fill="#000000" font-family="sans-serif" font-size="14" lengthAdjust="spacingAndGlyphs" textLength="97" x="52" y="248.9951">Move to Block</text></g><g id="MineBlock"><rect fill="#FEFECE" filter="url(#f1r9xsfbz3khyg)" height="50" rx="12.5" ry="12.5" style="stroke: #A80036; stroke-width: 1.5;" width="95" x="18" y="373"/><line style="stroke: #A80036; stroke-width: 1.5;" x1="18" x2="113" y1="399.2969" y2="399.2969"/><text fill="#000000" font-family="sans-serif" font-size="14" lengthAdjust="spacingAndGlyphs" textLength="75" x="28" y="390.9951">Mine Block</text></g><g id="CollectItems"><rect fill="#FEFECE" filter="url(#f1r9xsfbz3khyg)" height="50" rx="12.5" ry="12.5" style="stroke: #A80036; stroke-width: 1.5;" width="109" x="6" y="484"/><line style="stroke: #A80036; stroke-width: 1.5;" x1="6" x2="115" y1="510.2969" y2="510.2969"/><text fill="#000000" font-family="sans-serif" font-size="14" lengthAdjust="spacingAndGlyphs" textLength="89" x="16" y="501.9951">Collect Items</text></g><g id="StoreItems"><rect fill="#FEFECE" filter="url(#f1r9xsfbz3khyg)" height="50" rx="12.5" ry="12.5" style="stroke: #A80036; stroke-width: 1.5;" width="99" x="198" y="231"/><line style="stroke: #A80036; stroke-width: 1.5;" x1="198" x2="297" y1="257.2969" y2="257.2969"/><text fill="#000000" font-family="sans-serif" font-size="14" lengthAdjust="spacingAndGlyphs" textLength="79" x="208" y="248.9951">Store Items</text></g><g id="MoveToChest"><rect fill="#FEFECE" filter="url(#f1r9xsfbz3khyg)" height="50" rx="12.5" ry="12.5" style="stroke: #A80036; stroke-width: 1.5;" width="124" x="199.5" y="595"/><line style="stroke: #A80036; stroke-width: 1.5;" x1="199.5" x2="323.5" y1="621.2969" y2="621.2969"/><text fill="#000000" font-family="sans-serif" font-size="14" lengthAdjust="spacingAndGlyphs" textLength="104" x="209.5" y="612.9951">Move To Chest</text></g><g id="CraftChest"><rect fill="#FEFECE" filter="url(#f1r9xsfbz3khyg)" height="50" rx="12.5" ry="12.5" style="stroke: #A80036; stroke-width: 1.5;" width="97" x="223" y="373"/><line style="stroke: #A80036; stroke-width: 1.5;" x1="223" x2="320" y1="399.2969" y2="399.2969"/><text fill="#000000" font-family="sans-serif" font-size="14" lengthAdjust="spacingAndGlyphs" textLength="77" x="233" y="390.9951">Craft Chest</text></g><g id="PlaceChest"><rect fill="#FEFECE" filter="url(#f1r9xsfbz3khyg)" height="50" rx="12.5" ry="12.5" style="stroke: #A80036; stroke-width: 1.5;" width="102" x="221.5" y="484"/><line style="stroke: #A80036; stroke-width: 1.5;" x1="221.5" x2="323.5" y1="510.2969" y2="510.2969"/><text fill="#000000" font-family="sans-serif" font-size="14" lengthAdjust="spacingAndGlyphs" textLength="82" x="231.5" y="501.9951">Place Chest</text></g><g id="EmptyItems"><rect fill="#FEFECE" filter="url(#f1r9xsfbz3khyg)" height="50" rx="12.5" ry="12.5" style="stroke: #A80036; stroke-width: 1.5;" width="105" x="266" y="706"/><line style="stroke: #A80036; stroke-width: 1.5;" x1="266" x2="371" y1="732.2969" y2="732.2969"/><text fill="#000000" font-family="sans-serif" font-size="14" lengthAdjust="spacingAndGlyphs" textLength="85" x="276" y="723.9951">Empty Items</text></g><ellipse cx="247.5" cy="18" fill="#000000" filter="url(#f1r9xsfbz3khyg)" rx="10" ry="10" style="stroke: none; stroke-width: 1.0;"/><ellipse cx="60.5" cy="620" fill="none" filter="url(#f1r9xsfbz3khyg)" rx="10" ry="10" style="stroke: #000000; stroke-width: 1.0;"/><ellipse cx="61" cy="620.5" fill="#000000" rx="6" ry="6" style="stroke: none; stroke-width: 1.0;"/><!--MD5=[ca3cc38517c8bfce5967e97faa4f68b5]
link *start to TryCollectBlock--><path d="M247.5,28.01 C247.5,40.7 247.5,64.41 247.5,83.57 " fill="none" id="*start-&gt;TryCollectBlock" style="stroke: #A80036; stroke-width: 1.0;"/><polygon fill="#A80036" points="247.5,88.84,251.5,79.84,247.5,83.84,243.5,79.84,247.5,88.84" style="stroke: #A80036; stroke-width: 1.0;"/><!--MD5=[80b6741c88fd020d3ac766efe79e9a9e]
link TryCollectBlock to MoveToBlock--><path d="M213.72,139.08 C201.88,148.03 188.74,158.55 177.5,169 C157.98,187.14 137.97,209.63 123.24,227.06 " fill="none" id="TryCollectBlock-&gt;MoveToBlock" style="stroke: #A80036; stroke-width: 1.0;"/><polygon fill="#A80036" points="119.99,230.93,128.8498,226.6284,123.2133,227.1077,122.7341,221.4711,119.99,230.93" style="stroke: #A80036; stroke-width: 1.0;"/><text fill="#000000" font-family="sans-serif" font-size="13" lengthAdjust="spacingAndGlyphs" textLength="60" x="178.5" y="182.0669">If room in</text><text fill="#000000" font-family="sans-serif" font-size="13" lengthAdjust="spacingAndGlyphs" textLength="59" x="179" y="197.1997">inventory</text><!--MD5=[4d86f91b464ba12b5adae833609b3e97]
link MoveToBlock to MineBlock--><path d="M94.48,281.07 C88.47,305.11 79.23,342.09 72.8,367.79 " fill="none" id="MoveToBlock-&gt;MineBlock" style="stroke: #A80036; stroke-width: 1.0;"/><polygon fill="#A80036" points="71.56,372.78,77.6234,365.0189,72.7727,367.9293,69.8623,363.0786,71.56,372.78" style="stroke: #A80036; stroke-width: 1.0;"/><!--MD5=[c5cc76b9a11c843030a7688ab5d28790]
link MineBlock to CollectItems--><path d="M64.39,423.19 C63.64,439.56 62.64,461.28 61.85,478.64 " fill="none" id="MineBlock-&gt;CollectItems" style="stroke: #A80036; stroke-width: 1.0;"/><polygon fill="#A80036" points="61.61,483.88,66.018,475.0726,61.839,478.8852,58.0264,474.7063,61.61,483.88" style="stroke: #A80036; stroke-width: 1.0;"/><!--MD5=[71dec47aca2df25cfb140f3be347f503]
link CollectItems to *end--><path d="M60.5,534.19 C60.5,555.79 60.5,586.7 60.5,604.63 " fill="none" id="CollectItems-&gt;*end" style="stroke: #A80036; stroke-width: 1.0;"/><polygon fill="#A80036" points="60.5,609.75,64.5,600.75,60.5,604.75,56.5,600.75,60.5,609.75" style="stroke: #A80036; stroke-width: 1.0;"/><!--MD5=[e2b557545c63fc1b487d1d7864491a4d]
link TryCollectBlock to StoreItems--><path d="M247.5,139.07 C247.5,163.01 247.5,199.78 247.5,225.47 " fill="none" id="TryCollectBlock-&gt;StoreItems" style="stroke: #A80036; stroke-width: 1.0;"/><polygon fill="#A80036" points="247.5,230.78,251.5,221.78,247.5,225.78,243.5,221.78,247.5,230.78" style="stroke: #A80036; stroke-width: 1.0;"/><text fill="#000000" font-family="sans-serif" font-size="13" lengthAdjust="spacingAndGlyphs" textLength="65" x="253" y="182.0669">If no room</text><text fill="#000000" font-family="sans-serif" font-size="13" lengthAdjust="spacingAndGlyphs" textLength="74" x="248.5" y="197.1997">in inventory</text><!--MD5=[44298a987098c0fb90a423355b226546]
link StoreItems to CraftChest--><path d="M251.63,281.07 C255.75,305.11 262.09,342.09 266.49,367.79 " fill="none" id="StoreItems-&gt;CraftChest" style="stroke: #A80036; stroke-width: 1.0;"/><polygon fill="#A80036" points="267.35,372.78,269.7488,363.2277,266.4933,367.8539,261.8671,364.5985,267.35,372.78" style="stroke: #A80036; stroke-width: 1.0;"/><text fill="#000000" font-family="sans-serif" font-size="13" lengthAdjust="spacingAndGlyphs" textLength="66" x="263.5" y="324.0669">If no chest</text><text fill="#000000" font-family="sans-serif" font-size="13" lengthAdjust="spacingAndGlyphs" textLength="44" x="274.5" y="339.1997">nearby</text><!--MD5=[2573557f0a0e2067342810dd55603fa6]
link CraftChest to PlaceChest--><path d="M271.72,423.19 C271.87,439.56 272.07,461.28 272.23,478.64 " fill="none" id="CraftChest-&gt;PlaceChest" style="stroke: #A80036; stroke-width: 1.0;"/><polygon fill="#A80036" points="272.28,483.88,276.2027,474.846,272.2371,478.8802,268.203,474.9146,272.28,483.88" style="stroke: #A80036; stroke-width: 1.0;"/><!--MD5=[c1a0d4c8411236bd767ab676fe83fec6]
link PlaceChest to MoveToChest--><path d="M270.06,534.19 C268.41,550.56 266.21,572.28 264.46,589.64 " fill="none" id="PlaceChest-&gt;MoveToChest" style="stroke: #A80036; stroke-width: 1.0;"/><polygon fill="#A80036" points="263.93,594.88,268.8106,586.3255,264.4303,589.9051,260.8507,585.5249,263.93,594.88" style="stroke: #A80036; stroke-width: 1.0;"/><!--MD5=[a3b07950bd1d7b84547bf046a2ae0e24]
link StoreItems to MoveToChest--><path d="M236.06,281.23 C225.84,304.26 211.57,340.14 205.5,373 C192.5,443.37 182.39,465.62 203.5,534 C209.91,554.75 223.31,574.96 235.62,590.47 " fill="none" id="StoreItems-&gt;MoveToChest" style="stroke: #A80036; stroke-width: 1.0;"/><polygon fill="#A80036" points="239.05,594.71,236.4791,585.2026,235.897,590.8294,230.2702,590.2473,239.05,594.71" style="stroke: #A80036; stroke-width: 1.0;"/><!--MD5=[793e72ba8b79b47b68d0cf626faaf696]
link MoveToChest to EmptyItems--><path d="M274.15,645.19 C282.78,661.7 294.26,683.65 303.38,701.09 " fill="none" id="MoveToChest-&gt;EmptyItems" style="stroke: #A80036; stroke-width: 1.0;"/><polygon fill="#A80036" points="305.89,705.88,305.2667,696.0509,303.5742,701.4486,298.1765,699.7561,305.89,705.88" style="stroke: #A80036; stroke-width: 1.0;"/><!--MD5=[a72e780d7a260c437b7e179dfb22826b]
link EmptyItems to TryCollectBlock--><path d="M340.1,705.95 C356.59,685.05 376.5,653.15 376.5,621 C376.5,255 376.5,255 376.5,255 C376.5,211.86 360.61,200.83 331.5,169 C322.12,158.75 310.38,149.62 298.68,141.92 " fill="none" id="EmptyItems-&gt;TryCollectBlock" style="stroke: #A80036; stroke-width: 1.0;"/><polygon fill="#A80036" points="294.37,139.15,299.7776,147.3815,298.5759,141.8538,304.1036,140.6521,294.37,139.15" style="stroke: #A80036; stroke-width: 1.0;"/><!--MD5=[2675c1863fe77a778376893c2d8eb069]
@startuml "Collect Block"

state "Try Collect Block" as TryCollectBlock
state "Move to Block" as MoveToBlock
state "Mine Block" as MineBlock
state "Collect Items" as CollectItems
state "Store Items" as StoreItems
state "Move To Chest" as MoveToChest
state "Craft Chest" as CraftChest
state "Place Chest" as PlaceChest
state "Empty Items" as EmptyItems

[*] - -> TryCollectBlock

TryCollectBlock - -> MoveToBlock : If room in\ninventory
MoveToBlock - -> MineBlock
MineBlock - -> CollectItems
CollectItems - -> [*]

TryCollectBlock - -> StoreItems : If no room\nin inventory
StoreItems - -> CraftChest : If no chest\nnearby
CraftChest - -> PlaceChest
PlaceChest - -> MoveToChest

StoreItems - -> MoveToChest
MoveToChest - -> EmptyItems
EmptyItems - -> TryCollectBlock

@enduml

PlantUML version 1.2020.10(Sun May 17 02:35:57 MST 2020)
(GPL source distribution)
Java Runtime: OpenJDK Runtime Environment
JVM: OpenJDK 64-Bit Server VM
Java Version: 14.0.1+7
Operating System: Linux
Default Encoding: UTF-8
Language: en
Country: US
--></g></svg>