<?xml version="1.0" encoding="UTF-8" standalone="no"?><svg xmlns="http://www.w3.org/2000/svg" xmlns:xlink="http://www.w3.org/1999/xlink" contentScriptType="application/ecmascript" contentStyleType="text/css" height="1008px" preserveAspectRatio="none" style="width:694px;height:1008px;" version="1.1" viewBox="0 0 694 1008" width="694px" zoomAndPan="magnify"><defs><filter height="300%" id="f1xra9tmf69bme" width="300%" x="-1" y="-1"><feGaussianBlur result="blurOut" stdDeviation="2.0"/><feColorMatrix in="blurOut" result="blurOut2" type="matrix" values="0 0 0 0 0 0 0 0 0 0 0 0 0 0 0 0 0 0 .4 0"/><feOffset dx="4.0" dy="4.0" in="blurOut2" result="blurOut3"/><feBlend in="SourceGraphic" in2="blurOut3" mode="normal"/></filter></defs><g><g id="CollectWood"><rect fill="#FEFECE" filter="url(#f1xra9tmf69bme)" height="50.2656" rx="12.5" ry="12.5" style="stroke: #A80036; stroke-width: 1.5;" width="111" x="459" y="105"/><line style="stroke: #A80036; stroke-width: 1.5;" x1="459" x2="570" y1="131.2969" y2="131.2969"/><text fill="#000000" font-family="sans-serif" font-size="14" lengthAdjust="spacingAndGlyphs" textLength="91" x="469" y="122.9951">Collect Wood</text><text fill="#000000" font-family="sans-serif" font-size="12" lengthAdjust="spacingAndGlyphs" textLength="60" x="464" y="147.4355">Idle State</text></g><g id="FindTree"><rect fill="#FEFECE" filter="url(#f1xra9tmf69bme)" height="50" rx="12.5" ry="12.5" style="stroke: #A80036; stroke-width: 1.5;" width="85" x="390" y="216"/><line style="stroke: #A80036; stroke-width: 1.5;" x1="390" x2="475" y1="242.2969" y2="242.2969"/><text fill="#000000" font-family="sans-serif" font-size="14" lengthAdjust="spacingAndGlyphs" textLength="65" x="400" y="233.9951">Find Tree</text></g><g id="NoTreesInArea"><rect fill="#FEFECE" filter="url(#f1xra9tmf69bme)" height="50" rx="12.5" ry="12.5" style="stroke: #A80036; stroke-width: 1.5;" width="134" x="179.5" y="343"/><line style="stroke: #A80036; stroke-width: 1.5;" x1="179.5" x2="313.5" y1="369.2969" y2="369.2969"/><text fill="#000000" font-family="sans-serif" font-size="14" lengthAdjust="spacingAndGlyphs" textLength="114" x="189.5" y="360.9951">No Trees in Area</text></g><g id="PlantTree"><rect fill="#FEFECE" filter="url(#f1xra9tmf69bme)" height="50" rx="12.5" ry="12.5" style="stroke: #A80036; stroke-width: 1.5;" width="90" x="48.5" y="485"/><line style="stroke: #A80036; stroke-width: 1.5;" x1="48.5" x2="138.5" y1="511.2969" y2="511.2969"/><text fill="#000000" font-family="sans-serif" font-size="14" lengthAdjust="spacingAndGlyphs" textLength="70" x="58.5" y="502.9951">Plant Tree</text></g><g id="WaitForTreeToGrow"><rect fill="#FEFECE" filter="url(#f1xra9tmf69bme)" height="50" rx="12.5" ry="12.5" style="stroke: #A80036; stroke-width: 1.5;" width="173" x="6" y="739"/><line style="stroke: #A80036; stroke-width: 1.5;" x1="6" x2="179" y1="765.2969" y2="765.2969"/><text fill="#000000" font-family="sans-serif" font-size="14" lengthAdjust="spacingAndGlyphs" textLength="153" x="16" y="756.9951">Wait For Tree To Grow</text></g><g id="BonemealTree"><rect fill="#FEFECE" filter="url(#f1xra9tmf69bme)" height="50" rx="12.5" ry="12.5" style="stroke: #A80036; stroke-width: 1.5;" width="126" x="176.5" y="612"/><line style="stroke: #A80036; stroke-width: 1.5;" x1="176.5" x2="302.5" y1="638.2969" y2="638.2969"/><text fill="#000000" font-family="sans-serif" font-size="14" lengthAdjust="spacingAndGlyphs" textLength="106" x="186.5" y="629.9951">Bonemeal Tree</text></g><g id="FindForestBiome"><rect fill="#FEFECE" filter="url(#f1xra9tmf69bme)" height="50" rx="12.5" ry="12.5" style="stroke: #A80036; stroke-width: 1.5;" width="145" x="174" y="485"/><line style="stroke: #A80036; stroke-width: 1.5;" x1="174" x2="319" y1="511.2969" y2="511.2969"/><text fill="#000000" font-family="sans-serif" font-size="14" lengthAdjust="spacingAndGlyphs" textLength="125" x="184" y="502.9951">Find Forest Biome</text></g><g id="ConfirmNaturalTree"><rect fill="#FEFECE" filter="url(#f1xra9tmf69bme)" height="50" rx="12.5" ry="12.5" style="stroke: #A80036; stroke-width: 1.5;" width="161" x="338" y="612"/><line style="stroke: #A80036; stroke-width: 1.5;" x1="338" x2="499" y1="638.2969" y2="638.2969"/><text fill="#000000" font-family="sans-serif" font-size="14" lengthAdjust="spacingAndGlyphs" textLength="141" x="348" y="629.9951">Confirm Natural Tree</text></g><g id="ChopDownTree"><rect fill="#FEFECE" filter="url(#f1xra9tmf69bme)" height="50.2656" rx="12.5" ry="12.5" style="stroke: #A80036; stroke-width: 1.5;" width="137" x="265" y="850"/><line style="stroke: #A80036; stroke-width: 1.5;" x1="265" x2="402" y1="876.2969" y2="876.2969"/><text fill="#000000" font-family="sans-serif" font-size="14" lengthAdjust="spacingAndGlyphs" textLength="117" x="275" y="867.9951">Chop Down Tree</text><text fill="#000000" font-family="sans-serif" font-size="12" lengthAdjust="spacingAndGlyphs" textLength="117" x="270" y="892.4355">Collect Block State</text></g><ellipse cx="514.5" cy="18" fill="#000000" filter="url(#f1xra9tmf69bme)" rx="10" ry="10" style="stroke: none; stroke-width: 1.0;"/><ellipse cx="333.5" cy="987" fill="none" filter="url(#f1xra9tmf69bme)" rx="10" ry="10" style="stroke: #000000; stroke-width: 1.0;"/><ellipse cx="334" cy="987.5" fill="#000000" rx="6" ry="6" style="stroke: none; stroke-width: 1.0;"/><!--MD5=[d18dec2f7e72d56fcf754ee362958d0d]
link *start to CollectWood--><path d="M514.5,28 C514.5,43.46 514.5,75.68 514.5,99.6 " fill="none" id="*start-&gt;CollectWood" style="stroke: #A80036; stroke-width: 1.0;"/><polygon fill="#A80036" points="514.5,104.87,518.5,95.87,514.5,99.87,510.5,95.87,514.5,104.87" style="stroke: #A80036; stroke-width: 1.0;"/><text fill="#000000" font-family="sans-serif" font-size="13" lengthAdjust="spacingAndGlyphs" textLength="108" x="515.5" y="71.0669">If collecting wood</text><!--MD5=[2bbbed985ef22121ead904622ee07b1e]
link CollectWood to FindTree--><path d="M496.3,155.19 C483.77,171.84 467.08,194.03 453.91,211.53 " fill="none" id="CollectWood-&gt;FindTree" style="stroke: #A80036; stroke-width: 1.0;"/><polygon fill="#A80036" points="450.65,215.88,459.2582,211.0948,453.6569,211.8852,452.8665,206.2838,450.65,215.88" style="stroke: #A80036; stroke-width: 1.0;"/><!--MD5=[0bf80db871e50efe17543eac88fdd768]
link FindTree to ConfirmNaturalTree--><path d="M421.14,266.19 C405.82,300.27 379.34,364.77 369.5,423 C358.26,489.51 386.26,566.36 404.42,607.12 " fill="none" id="FindTree-&gt;ConfirmNaturalTree" style="stroke: #A80036; stroke-width: 1.0;"/><polygon fill="#A80036" points="406.58,611.91,406.5229,602.0613,404.5228,607.3528,399.2313,605.3528,406.58,611.91" style="stroke: #A80036; stroke-width: 1.0;"/><text fill="#000000" font-family="sans-serif" font-size="13" lengthAdjust="spacingAndGlyphs" textLength="77" x="370.5" y="443.5669">If found tree</text><!--MD5=[9c3af756d6711c4ba18daa6a8b50733c]
link ConfirmNaturalTree to FindTree--><path d="M424.51,611.9 C432.77,577.41 447.21,511.83 452.5,455 C458.61,389.39 446.65,312.42 438.72,271.35 " fill="none" id="ConfirmNaturalTree-&gt;FindTree" style="stroke: #A80036; stroke-width: 1.0;"/><polygon fill="#A80036" points="437.73,266.28,435.5296,275.8799,438.6886,271.1873,443.3812,274.3462,437.73,266.28" style="stroke: #A80036; stroke-width: 1.0;"/><text fill="#000000" font-family="sans-serif" font-size="13" lengthAdjust="spacingAndGlyphs" textLength="81" x="455.5" y="436.0669">If not natural</text><text fill="#000000" font-family="sans-serif" font-size="13" lengthAdjust="spacingAndGlyphs" textLength="26" x="483" y="451.1997">tree</text><!--MD5=[8eb12b183ba43c3c67443b32cd2c7fe5]
link FindTree to NoTreesInArea--><path d="M389.72,248.53 C340.65,256.98 264.72,273.37 247.5,296 C238.59,307.71 237.77,323.93 239.43,337.91 " fill="none" id="FindTree-&gt;NoTreesInArea" style="stroke: #A80036; stroke-width: 1.0;"/><polygon fill="#A80036" points="240.15,342.95,242.8255,333.4715,239.4369,338.0011,234.9073,334.6125,240.15,342.95" style="stroke: #A80036; stroke-width: 1.0;"/><text fill="#000000" font-family="sans-serif" font-size="13" lengthAdjust="spacingAndGlyphs" textLength="97" x="248.5" y="309.0669">If no tree found</text><!--MD5=[ce0fc36448bebd86c8b2ff9d51f33e16]
link NoTreesInArea to PlantTree--><path d="M187.8,393.09 C172.58,401.12 156.98,411.11 144.5,423 C127.73,438.98 114.58,461.67 105.84,479.73 " fill="none" id="NoTreesInArea-&gt;PlantTree" style="stroke: #A80036; stroke-width: 1.0;"/><polygon fill="#A80036" points="103.49,484.69,110.9464,478.2555,105.6224,480.1675,103.7104,474.8436,103.49,484.69" style="stroke: #A80036; stroke-width: 1.0;"/><text fill="#000000" font-family="sans-serif" font-size="13" lengthAdjust="spacingAndGlyphs" textLength="90" x="145.5" y="443.5669">If has saplings</text><!--MD5=[ed627340b47b7436c71e29997e36c164]
link NoTreesInArea to FindForestBiome--><path d="M245.41,393.19 C245.04,402.5 244.68,413.24 244.5,423 C244.24,437.22 244.24,440.78 244.5,455 C244.65,462.93 244.91,471.5 245.21,479.44 " fill="none" id="NoTreesInArea-&gt;FindForestBiome" style="stroke: #A80036; stroke-width: 1.0;"/><polygon fill="#A80036" points="245.41,484.81,249.0732,475.6677,245.2244,479.8134,241.0787,475.9647,245.41,484.81" style="stroke: #A80036; stroke-width: 1.0;"/><text fill="#000000" font-family="sans-serif" font-size="13" lengthAdjust="spacingAndGlyphs" textLength="83" x="245.5" y="443.5669">If no saplings</text><!--MD5=[c972058b2b73349a805ad5f09c741c1d]
link FindForestBiome to ConfirmNaturalTree--><path d="M247,535.1 C248.54,550.28 252.91,569.33 264.5,582 C274.71,593.16 303.2,604.41 332.94,613.73 " fill="none" id="FindForestBiome-&gt;ConfirmNaturalTree" style="stroke: #A80036; stroke-width: 1.0;"/><polygon fill="#A80036" points="337.72,615.2,330.2984,608.7254,332.942,613.7266,327.9409,616.3702,337.72,615.2" style="stroke: #A80036; stroke-width: 1.0;"/><text fill="#000000" font-family="sans-serif" font-size="13" lengthAdjust="spacingAndGlyphs" textLength="80" x="265.5" y="578.0669">Forest found</text><!--MD5=[acf9a65341ad6877960cd5a74a4865bb]
link PlantTree to WaitForTreeToGrow--><path d="M83.44,535.4 C75.71,555.54 65.66,585.1 61.5,612 C58.1,633.96 58.2,640.02 61.5,662 C65.24,686.92 73.89,714.17 81.11,734.08 " fill="none" id="PlantTree-&gt;WaitForTreeToGrow" style="stroke: #A80036; stroke-width: 1.0;"/><polygon fill="#A80036" points="82.91,738.98,83.5479,729.1518,81.1795,734.289,76.0423,731.9206,82.91,738.98" style="stroke: #A80036; stroke-width: 1.0;"/><text fill="#000000" font-family="sans-serif" font-size="13" lengthAdjust="spacingAndGlyphs" textLength="95" x="62.5" y="641.5669">If no bonemeal</text><!--MD5=[db4bf677a04cdfcb4b9e5070e4d98a61]
link PlantTree to BonemealTree--><path d="M104.45,535.3 C112.08,550.18 123.41,568.83 137.5,582 C148.88,592.63 162.75,601.78 176.55,609.38 " fill="none" id="PlantTree-&gt;BonemealTree" style="stroke: #A80036; stroke-width: 1.0;"/><polygon fill="#A80036" points="181.22,611.89,175.1952,604.0989,176.8186,609.5178,171.3996,611.1412,181.22,611.89" style="stroke: #A80036; stroke-width: 1.0;"/><text fill="#000000" font-family="sans-serif" font-size="13" lengthAdjust="spacingAndGlyphs" textLength="75" x="138.5" y="578.0669">If bonemeal</text><!--MD5=[ade35c5ace6a4f8f3e5c01b3c5d515b9]
link BonemealTree to WaitForTreeToGrow--><path d="M176.36,653.4 C154.18,661.6 130.77,673.88 114.5,692 C104.21,703.46 98.73,719.66 95.82,733.7 " fill="none" id="BonemealTree-&gt;WaitForTreeToGrow" style="stroke: #A80036; stroke-width: 1.0;"/><polygon fill="#A80036" points="94.85,738.76,100.4515,730.6592,95.7783,733.8469,92.5906,729.1738,94.85,738.76" style="stroke: #A80036; stroke-width: 1.0;"/><text fill="#000000" font-family="sans-serif" font-size="13" lengthAdjust="spacingAndGlyphs" textLength="107" x="115.5" y="705.0669">Out of bonemeal</text><!--MD5=[bf6d147411799ce3b02965332a21fb83]
link WaitForTreeToGrow to ChopDownTree--><path d="M145.69,789.06 C184.05,806.41 235.81,829.82 275.28,847.67 " fill="none" id="WaitForTreeToGrow-&gt;ChopDownTree" style="stroke: #A80036; stroke-width: 1.0;"/><polygon fill="#A80036" points="280.03,849.82,273.4728,842.4713,275.4728,847.7628,270.1813,849.7629,280.03,849.82" style="stroke: #A80036; stroke-width: 1.0;"/><!--MD5=[2dadcc55f6f32039ff958d90199af989]
link BonemealTree to ChopDownTree--><path d="M236.09,662.25 C232.84,693.16 230.85,747.55 249.5,789 C259.63,811.51 278.49,831.46 295.78,846.37 " fill="none" id="BonemealTree-&gt;ChopDownTree" style="stroke: #A80036; stroke-width: 1.0;"/><polygon fill="#A80036" points="299.67,849.66,295.3848,840.7923,295.8536,846.4296,290.2162,846.8985,299.67,849.66" style="stroke: #A80036; stroke-width: 1.0;"/><text fill="#000000" font-family="sans-serif" font-size="13" lengthAdjust="spacingAndGlyphs" textLength="114" x="250.5" y="768.5669">Bonemeal worked</text><!--MD5=[ae6f708e373c527b2ad8a9f2b8eddad9]
link ConfirmNaturalTree to ChopDownTree--><path d="M412.5,662.17 C404.74,692.3 390.23,745.17 373.5,789 C366.22,808.06 356.51,828.78 348.48,844.99 " fill="none" id="ConfirmNaturalTree-&gt;ChopDownTree" style="stroke: #A80036; stroke-width: 1.0;"/><polygon fill="#A80036" points="346.04,849.87,353.6346,843.5993,348.2703,845.395,346.4746,840.0307,346.04,849.87" style="stroke: #A80036; stroke-width: 1.0;"/><!--MD5=[2b235a8161b4473c6d0045f7b07059f8]
link ChopDownTree to CollectWood--><path d="M402.17,873.94 C480.4,869.82 597.5,849.54 597.5,765 C597.5,240 597.5,240 597.5,240 C597.5,207.4 573.71,178.46 551.6,158.61 " fill="none" id="ChopDownTree-&gt;CollectWood" style="stroke: #A80036; stroke-width: 1.0;"/><polygon fill="#A80036" points="547.78,155.25,551.9024,164.1946,551.5367,158.5496,557.1817,158.1839,547.78,155.25" style="stroke: #A80036; stroke-width: 1.0;"/><text fill="#000000" font-family="sans-serif" font-size="13" lengthAdjust="spacingAndGlyphs" textLength="84" x="598.5" y="507.0669">If not enough</text><text fill="#000000" font-family="sans-serif" font-size="13" lengthAdjust="spacingAndGlyphs" textLength="63" x="609" y="522.1997">resources</text><!--MD5=[f0ebc8d90dc20f405d8dcbdf12702edf]
link ChopDownTree to *end--><path d="M333.5,900.14 C333.5,922.03 333.5,953.57 333.5,971.71 " fill="none" id="ChopDownTree-&gt;*end" style="stroke: #A80036; stroke-width: 1.0;"/><polygon fill="#A80036" points="333.5,976.88,337.5,967.88,333.5,971.88,329.5,967.88,333.5,976.88" style="stroke: #A80036; stroke-width: 1.0;"/><text fill="#000000" font-family="sans-serif" font-size="13" lengthAdjust="spacingAndGlyphs" textLength="126" x="334.5" y="943.0669">If enough resources</text><!--MD5=[31fe24a181119590b72efc5a982546ec]
@startuml "Collect Wood"

state "Collect Wood" as CollectWood : Idle State
state "Find Tree" as FindTree
state "No Trees in Area" as NoTreesInArea
state "Plant Tree" as PlantTree
state "Wait For Tree To Grow" as WaitForTreeToGrow
state "Bonemeal Tree" as BonemealTree
state "Find Forest Biome" as FindForestBiome
state "Confirm Natural Tree" as ConfirmNaturalTree
state "Chop Down Tree" as ChopDownTree : Collect Block State

[*] - -> CollectWood : If collecting wood
CollectWood - -> FindTree

FindTree - -> ConfirmNaturalTree : If found tree
FindTree - -> NoTreesInArea : If no tree found
NoTreesInArea - -> PlantTree : If has saplings
NoTreesInArea - -> FindForestBiome : If no saplings

FindForestBiome - -> ConfirmNaturalTree : Forest found

PlantTree - -> WaitForTreeToGrow : If no bonemeal
PlantTree - -> BonemealTree : If bonemeal
BonemealTree - -> WaitForTreeToGrow : Out of bonemeal
WaitForTreeToGrow - -> ChopDownTree
BonemealTree - -> ChopDownTree : Bonemeal worked

ConfirmNaturalTree - -> FindTree : If not natural\ntree
ConfirmNaturalTree - -> ChopDownTree

ChopDownTree - -> CollectWood : If not enough\nresources
ChopDownTree - -> [*] : If enough resources

@enduml

PlantUML version 1.2020.10(Sun May 17 02:35:57 MST 2020)
(GPL source distribution)
Java Runtime: OpenJDK Runtime Environment
JVM: OpenJDK 64-Bit Server VM
Java Version: 14.0.1+7
Operating System: Linux
Default Encoding: UTF-8
Language: en
Country: US
--></g></svg>