<?xml version="1.0" encoding="UTF-8" standalone="no"?><svg xmlns="http://www.w3.org/2000/svg" xmlns:xlink="http://www.w3.org/1999/xlink" contentScriptType="application/ecmascript" contentStyleType="text/css" height="769px" preserveAspectRatio="none" style="width:764px;height:769px;" version="1.1" viewBox="0 0 764 769" width="764px" zoomAndPan="magnify"><defs><filter height="300%" id="fefynhnzj51re" width="300%" x="-1" y="-1"><feGaussianBlur result="blurOut" stdDeviation="2.0"/><feColorMatrix in="blurOut" result="blurOut2" type="matrix" values="0 0 0 0 0 0 0 0 0 0 0 0 0 0 0 0 0 0 .4 0"/><feOffset dx="4.0" dy="4.0" in="blurOut2" result="blurOut3"/><feBlend in="SourceGraphic" in2="blurOut3" mode="normal"/></filter></defs><g><g id="CollectOre"><rect fill="#FEFECE" filter="url(#fefynhnzj51re)" height="50.2656" rx="12.5" ry="12.5" style="stroke: #A80036; stroke-width: 1.5;" width="96" x="352.5" y="89"/><line style="stroke: #A80036; stroke-width: 1.5;" x1="352.5" x2="448.5" y1="115.2969" y2="115.2969"/><text fill="#000000" font-family="sans-serif" font-size="14" lengthAdjust="spacingAndGlyphs" textLength="76" x="362.5" y="106.9951">Collect Ore</text><text fill="#000000" font-family="sans-serif" font-size="12" lengthAdjust="spacingAndGlyphs" textLength="60" x="357.5" y="131.4355">Idle State</text></g><g id="CreateMineshaft"><rect fill="#FEFECE" filter="url(#fefynhnzj51re)" height="50" rx="12.5" ry="12.5" style="stroke: #A80036; stroke-width: 1.5;" width="137" x="6" y="231"/><line style="stroke: #A80036; stroke-width: 1.5;" x1="6" x2="143" y1="257.2969" y2="257.2969"/><text fill="#000000" font-family="sans-serif" font-size="14" lengthAdjust="spacingAndGlyphs" textLength="117" x="16" y="248.9951">Create Mineshaft</text></g><g id="DecendMineshaft"><rect fill="#FEFECE" filter="url(#fefynhnzj51re)" height="50.2656" rx="12.5" ry="12.5" style="stroke: #A80036; stroke-width: 1.5;" width="146" x="140.5" y="373"/><line style="stroke: #A80036; stroke-width: 1.5;" x1="140.5" x2="286.5" y1="399.2969" y2="399.2969"/><text fill="#000000" font-family="sans-serif" font-size="14" lengthAdjust="spacingAndGlyphs" textLength="126" x="150.5" y="390.9951">Decend Mineshaft</text><text fill="#000000" font-family="sans-serif" font-size="12" lengthAdjust="spacingAndGlyphs" textLength="84" x="145.5" y="415.4355">Move To Area</text></g><g id="BranchMining"><rect fill="#FEFECE" filter="url(#fefynhnzj51re)" height="50" rx="12.5" ry="12.5" style="stroke: #A80036; stroke-width: 1.5;" width="118" x="341.5" y="484"/><line style="stroke: #A80036; stroke-width: 1.5;" x1="341.5" x2="459.5" y1="510.2969" y2="510.2969"/><text fill="#000000" font-family="sans-serif" font-size="14" lengthAdjust="spacingAndGlyphs" textLength="98" x="351.5" y="501.9951">Branch Mining</text></g><g id="MineOre"><rect fill="#FEFECE" filter="url(#fefynhnzj51re)" height="50.2656" rx="12.5" ry="12.5" style="stroke: #A80036; stroke-width: 1.5;" width="137" x="447" y="611"/><line style="stroke: #A80036; stroke-width: 1.5;" x1="447" x2="584" y1="637.2969" y2="637.2969"/><text fill="#000000" font-family="sans-serif" font-size="14" lengthAdjust="spacingAndGlyphs" textLength="62" x="484.5" y="628.9951">Mine Ore</text><text fill="#000000" font-family="sans-serif" font-size="12" lengthAdjust="spacingAndGlyphs" textLength="117" x="452" y="653.4355">Collect Block State</text></g><ellipse cx="400.5" cy="18" fill="#000000" filter="url(#fefynhnzj51re)" rx="10" ry="10" style="stroke: none; stroke-width: 1.0;"/><ellipse cx="515.5" cy="748" fill="none" filter="url(#fefynhnzj51re)" rx="10" ry="10" style="stroke: #000000; stroke-width: 1.0;"/><ellipse cx="516" cy="748.5" fill="#000000" rx="6" ry="6" style="stroke: none; stroke-width: 1.0;"/><!--MD5=[be784db0005c11370721c6781898d159]
link *start to CollectOre--><path d="M400.5,28.01 C400.5,40.7 400.5,64.41 400.5,83.57 " fill="none" id="*start-&gt;CollectOre" style="stroke: #A80036; stroke-width: 1.0;"/><polygon fill="#A80036" points="400.5,88.84,404.5,79.84,400.5,83.84,396.5,79.84,400.5,88.84" style="stroke: #A80036; stroke-width: 1.0;"/><!--MD5=[62562c7ef5375dc97b6d3b00af48e07a]
link CollectOre to CreateMineshaft--><path d="M352.27,115.74 C270.64,118.12 110.64,128.02 75.5,169 C62.35,184.33 62.82,207.48 66.19,225.89 " fill="none" id="CollectOre-&gt;CreateMineshaft" style="stroke: #A80036; stroke-width: 1.0;"/><polygon fill="#A80036" points="67.2,230.95,69.3465,221.3379,66.2139,226.0482,61.5036,222.9156,67.2,230.95" style="stroke: #A80036; stroke-width: 1.0;"/><text fill="#000000" font-family="sans-serif" font-size="13" lengthAdjust="spacingAndGlyphs" textLength="110" x="76.5" y="182.0669">If mineshaft does</text><text fill="#000000" font-family="sans-serif" font-size="13" lengthAdjust="spacingAndGlyphs" textLength="55" x="104" y="197.1997">not exist</text><!--MD5=[2544f9c44323a4e96467ee72b6a823b6]
link CreateMineshaft to DecendMineshaft--><path d="M83.5,281.11 C91.35,299.7 104.21,325.17 121.5,343 C131.61,353.42 144.15,362.52 156.68,370.13 " fill="none" id="CreateMineshaft-&gt;DecendMineshaft" style="stroke: #A80036; stroke-width: 1.0;"/><polygon fill="#A80036" points="161.3,372.87,155.5893,364.8458,156.9962,370.3249,151.5171,371.7319,161.3,372.87" style="stroke: #A80036; stroke-width: 1.0;"/><text fill="#000000" font-family="sans-serif" font-size="13" lengthAdjust="spacingAndGlyphs" textLength="47" x="131" y="324.0669">If not in</text><text fill="#000000" font-family="sans-serif" font-size="13" lengthAdjust="spacingAndGlyphs" textLength="64" x="122.5" y="339.1997">mineshaft</text><!--MD5=[4150ae2aac5469485581d60f2822bd16]
link CollectOre to DecendMineshaft--><path d="M352.2,137.03 C315.46,156.41 266.87,188.21 240.5,231 C214.54,273.11 211.12,332.2 211.77,367.34 " fill="none" id="CollectOre-&gt;DecendMineshaft" style="stroke: #A80036; stroke-width: 1.0;"/><polygon fill="#A80036" points="211.91,372.77,215.6773,363.6702,211.7815,367.7717,207.68,363.8758,211.91,372.77" style="stroke: #A80036; stroke-width: 1.0;"/><text fill="#000000" font-family="sans-serif" font-size="13" lengthAdjust="spacingAndGlyphs" textLength="112" x="251.5" y="253.0669">If mine does exist</text><text fill="#000000" font-family="sans-serif" font-size="13" lengthAdjust="spacingAndGlyphs" textLength="132" x="241.5" y="268.1997">and not in mineshaft</text><!--MD5=[a48345a510f20938cb36ba3ce6390ac2]
link CollectOre to BranchMining--><path d="M399.83,139.29 C398.75,180.97 396.83,268.78 397.5,343 C397.93,390.59 399.07,445.89 399.81,478.86 " fill="none" id="CollectOre-&gt;BranchMining" style="stroke: #A80036; stroke-width: 1.0;"/><polygon fill="#A80036" points="399.93,483.96,403.7233,474.8709,399.8157,478.9613,395.7254,475.0538,399.93,483.96" style="stroke: #A80036; stroke-width: 1.0;"/><text fill="#000000" font-family="sans-serif" font-size="13" lengthAdjust="spacingAndGlyphs" textLength="90" x="398.5" y="331.5669">If in mineshaft</text><!--MD5=[8a70116f3e4640d3c91aa4a69e78fe64]
link DecendMineshaft to BranchMining--><path d="M255,423.19 C284.54,440.41 324.23,463.54 354.69,481.3 " fill="none" id="DecendMineshaft-&gt;BranchMining" style="stroke: #A80036; stroke-width: 1.0;"/><polygon fill="#A80036" points="359.11,483.88,353.3679,475.8782,354.7963,481.3518,349.3227,482.7801,359.11,483.88" style="stroke: #A80036; stroke-width: 1.0;"/><!--MD5=[89eb154add72715f218e7bd56d3b0a07]
link BranchMining to MineOre--><path d="M403.85,534.12 C406.92,548.93 412.71,567.56 423.5,581 C432.07,591.67 443.37,600.69 455.09,608.11 " fill="none" id="BranchMining-&gt;MineOre" style="stroke: #A80036; stroke-width: 1.0;"/><polygon fill="#A80036" points="459.43,610.77,453.8539,602.6517,455.1693,608.1535,449.6675,609.4689,459.43,610.77" style="stroke: #A80036; stroke-width: 1.0;"/><text fill="#000000" font-family="sans-serif" font-size="13" lengthAdjust="spacingAndGlyphs" textLength="64" x="424.5" y="577.0669">If spot ore</text><!--MD5=[c4526d6744ea8c7ff2812063e07a045b]
link MineOre to CollectOre--><path d="M580.4,610.94 C621.72,590.97 667.5,558 667.5,510 C667.5,255 667.5,255 667.5,255 C667.5,159.36 531.45,128.92 453.59,119.34 " fill="none" id="MineOre-&gt;CollectOre" style="stroke: #A80036; stroke-width: 1.0;"/><polygon fill="#A80036" points="448.54,118.73,457.0085,123.7584,453.5055,119.3167,457.9472,115.8137,448.54,118.73" style="stroke: #A80036; stroke-width: 1.0;"/><text fill="#000000" font-family="sans-serif" font-size="13" lengthAdjust="spacingAndGlyphs" textLength="84" x="668.5" y="395.0669">If not enough</text><text fill="#000000" font-family="sans-serif" font-size="13" lengthAdjust="spacingAndGlyphs" textLength="63" x="679" y="410.1997">resources</text><!--MD5=[d576652c4fe02c60f9e2ac6fb9497823]
link CollectOre to MineOre--><path d="M438.47,139.23 C471.97,163.89 515.5,205.46 515.5,255 C515.5,255 515.5,255 515.5,510 C515.5,542.62 515.5,580.03 515.5,605.35 " fill="none" id="CollectOre-&gt;MineOre" style="stroke: #A80036; stroke-width: 1.0;"/><polygon fill="#A80036" points="515.5,610.57,519.5,601.57,515.5,605.57,511.5,601.57,515.5,610.57" style="stroke: #A80036; stroke-width: 1.0;"/><text fill="#000000" font-family="sans-serif" font-size="13" lengthAdjust="spacingAndGlyphs" textLength="80" x="516.5" y="402.5669">If ore nearby</text><!--MD5=[7bb7c95d8650896653b3a2326797008f]
link MineOre to *end--><path d="M515.5,661.14 C515.5,683.03 515.5,714.57 515.5,732.71 " fill="none" id="MineOre-&gt;*end" style="stroke: #A80036; stroke-width: 1.0;"/><polygon fill="#A80036" points="515.5,737.88,519.5,728.88,515.5,732.88,511.5,728.88,515.5,737.88" style="stroke: #A80036; stroke-width: 1.0;"/><text fill="#000000" font-family="sans-serif" font-size="13" lengthAdjust="spacingAndGlyphs" textLength="126" x="516.5" y="704.0669">If enough resources</text><!--MD5=[cc1b0adc98ddd3517a035546ceea9fe5]
@startuml "Collect Ore"

state "Collect Ore" as CollectOre : Idle State
state "Create Mineshaft" as CreateMineshaft
state "Decend Mineshaft" as DecendMineshaft : Move To Area
state "Branch Mining" as BranchMining
state "Mine Ore" as MineOre : Collect Block State

[*] - -> CollectOre

CollectOre - -> CreateMineshaft : If mineshaft does\nnot exist
CreateMineshaft - -> DecendMineshaft : If not in\nmineshaft
CollectOre - -> DecendMineshaft : If mine does exist\nand not in mineshaft

CollectOre - -> BranchMining : If in mineshaft
DecendMineshaft - -> BranchMining

BranchMining - -> MineOre : If spot ore

MineOre - -> CollectOre : If not enough\nresources
MineOre - -> [*] : If enough resources

CollectOre - -> MineOre  : If ore nearby

@enduml

PlantUML version 1.2020.10(Sun May 17 02:35:57 MST 2020)
(GPL source distribution)
Java Runtime: OpenJDK Runtime Environment
JVM: OpenJDK 64-Bit Server VM
Java Version: 14.0.1+7
Operating System: Linux
Default Encoding: UTF-8
Language: en
Country: US
--></g></svg>