<?xml version="1.0" encoding="UTF-8" standalone="no"?>
<!DOCTYPE svg PUBLIC "-//W3C//DTD SVG 1.0//EN" "http://www.w3.org/TR/2001/PR-SVG-20010719/DTD/svg10.dtd">
<svg width="53cm" height="58cm" viewBox="330 -142 1051 1143" xmlns="http://www.w3.org/2000/svg" xmlns:xlink="http://www.w3.org/1999/xlink">
  <g>
    <rect style="fill: #ffffff" x="860" y="840" width="100" height="60"/>
    <path style="fill: #ffffff" d="M 860,840 A 20,20 0 0 0 840,860 L 860,860 z"/>
    <path style="fill: #ffffff" d="M 980,860 A 20,20 0 0 0 960,840 L 960,860 z"/>
    <rect style="fill: #ffffff" x="840" y="860" width="140" height="20"/>
    <path style="fill: #ffffff" d="M 840,880 A 20,20 0 0 0 860,900 L 860,880 z"/>
    <path style="fill: #ffffff" d="M 960,900 A 20,20 0 0 0 980,880 L 960,880 z"/>
    <line style="fill: none; fill-opacity:0; stroke-width: 2; stroke: #000000" x1="860" y1="840" x2="960" y2="840"/>
    <line style="fill: none; fill-opacity:0; stroke-width: 2; stroke: #000000" x1="860" y1="900" x2="960" y2="900"/>
    <path style="fill: none; fill-opacity:0; stroke-width: 2; stroke: #000000" d="M 860,840 A 20,20 0 0 0 840,860"/>
    <path style="fill: none; fill-opacity:0; stroke-width: 2; stroke: #000000" d="M 980,860 A 20,20 0 0 0 960,840"/>
    <line style="fill: none; fill-opacity:0; stroke-width: 2; stroke: #000000" x1="840" y1="860" x2="840" y2="880"/>
    <line style="fill: none; fill-opacity:0; stroke-width: 2; stroke: #000000" x1="980" y1="860" x2="980" y2="880"/>
    <path style="fill: none; fill-opacity:0; stroke-width: 2; stroke: #000000" d="M 840,880 A 20,20 0 0 0 860,900"/>
    <path style="fill: none; fill-opacity:0; stroke-width: 2; stroke: #000000" d="M 960,900 A 20,20 0 0 0 980,880"/>
    <text font-size="12.7998" style="fill: #000000;text-anchor:middle;font-family:sans-serif;font-style:normal;font-weight:normal" x="910" y="873.881">
      <tspan x="910" y="873.881">Collect Item</tspan>
    </text>
  </g>
  <g>
    <rect style="fill: #ffffff" x="860" y="940" width="100" height="60"/>
    <path style="fill: #ffffff" d="M 860,940 A 20,20 0 0 0 840,960 L 860,960 z"/>
    <path style="fill: #ffffff" d="M 980,960 A 20,20 0 0 0 960,940 L 960,960 z"/>
    <rect style="fill: #ffffff" x="840" y="960" width="140" height="20"/>
    <path style="fill: #ffffff" d="M 840,980 A 20,20 0 0 0 860,1000 L 860,980 z"/>
    <path style="fill: #ffffff" d="M 960,1000 A 20,20 0 0 0 980,980 L 960,980 z"/>
    <line style="fill: none; fill-opacity:0; stroke-width: 2; stroke: #000000" x1="860" y1="940" x2="960" y2="940"/>
    <line style="fill: none; fill-opacity:0; stroke-width: 2; stroke: #000000" x1="860" y1="1000" x2="960" y2="1000"/>
    <path style="fill: none; fill-opacity:0; stroke-width: 2; stroke: #000000" d="M 860,940 A 20,20 0 0 0 840,960"/>
    <path style="fill: none; fill-opacity:0; stroke-width: 2; stroke: #000000" d="M 980,960 A 20,20 0 0 0 960,940"/>
    <line style="fill: none; fill-opacity:0; stroke-width: 2; stroke: #000000" x1="840" y1="960" x2="840" y2="980"/>
    <line style="fill: none; fill-opacity:0; stroke-width: 2; stroke: #000000" x1="980" y1="960" x2="980" y2="980"/>
    <path style="fill: none; fill-opacity:0; stroke-width: 2; stroke: #000000" d="M 840,980 A 20,20 0 0 0 860,1000"/>
    <path style="fill: none; fill-opacity:0; stroke-width: 2; stroke: #000000" d="M 960,1000 A 20,20 0 0 0 980,980"/>
    <text font-size="12.7998" style="fill: #000000;text-anchor:middle;font-family:sans-serif;font-style:normal;font-weight:normal" x="910" y="973.881">
      <tspan x="910" y="973.881">Move to Entity</tspan>
    </text>
  </g>
  <g>
    <rect style="fill: #ffffff" x="860" y="640" width="100" height="60"/>
    <path style="fill: #ffffff" d="M 860,640 A 20,20 0 0 0 840,660 L 860,660 z"/>
    <path style="fill: #ffffff" d="M 980,660 A 20,20 0 0 0 960,640 L 960,660 z"/>
    <rect style="fill: #ffffff" x="840" y="660" width="140" height="20"/>
    <path style="fill: #ffffff" d="M 840,680 A 20,20 0 0 0 860,700 L 860,680 z"/>
    <path style="fill: #ffffff" d="M 960,700 A 20,20 0 0 0 980,680 L 960,680 z"/>
    <line style="fill: none; fill-opacity:0; stroke-width: 2; stroke: #000000" x1="860" y1="640" x2="960" y2="640"/>
    <line style="fill: none; fill-opacity:0; stroke-width: 2; stroke: #000000" x1="860" y1="700" x2="960" y2="700"/>
    <path style="fill: none; fill-opacity:0; stroke-width: 2; stroke: #000000" d="M 860,640 A 20,20 0 0 0 840,660"/>
    <path style="fill: none; fill-opacity:0; stroke-width: 2; stroke: #000000" d="M 980,660 A 20,20 0 0 0 960,640"/>
    <line style="fill: none; fill-opacity:0; stroke-width: 2; stroke: #000000" x1="840" y1="660" x2="840" y2="680"/>
    <line style="fill: none; fill-opacity:0; stroke-width: 2; stroke: #000000" x1="980" y1="660" x2="980" y2="680"/>
    <path style="fill: none; fill-opacity:0; stroke-width: 2; stroke: #000000" d="M 840,680 A 20,20 0 0 0 860,700"/>
    <path style="fill: none; fill-opacity:0; stroke-width: 2; stroke: #000000" d="M 960,700 A 20,20 0 0 0 980,680"/>
    <text font-size="12.7998" style="fill: #000000;text-anchor:middle;font-family:sans-serif;font-style:normal;font-weight:normal" x="910" y="673.881">
      <tspan x="910" y="673.881">Break Block</tspan>
    </text>
  </g>
  <g>
    <rect style="fill: #ffffff" x="860" y="740" width="100" height="60"/>
    <path style="fill: #ffffff" d="M 860,740 A 20,20 0 0 0 840,760 L 860,760 z"/>
    <path style="fill: #ffffff" d="M 980,760 A 20,20 0 0 0 960,740 L 960,760 z"/>
    <rect style="fill: #ffffff" x="840" y="760" width="140" height="20"/>
    <path style="fill: #ffffff" d="M 840,780 A 20,20 0 0 0 860,800 L 860,780 z"/>
    <path style="fill: #ffffff" d="M 960,800 A 20,20 0 0 0 980,780 L 960,780 z"/>
    <line style="fill: none; fill-opacity:0; stroke-width: 2; stroke: #000000" x1="860" y1="740" x2="960" y2="740"/>
    <line style="fill: none; fill-opacity:0; stroke-width: 2; stroke: #000000" x1="860" y1="800" x2="960" y2="800"/>
    <path style="fill: none; fill-opacity:0; stroke-width: 2; stroke: #000000" d="M 860,740 A 20,20 0 0 0 840,760"/>
    <path style="fill: none; fill-opacity:0; stroke-width: 2; stroke: #000000" d="M 980,760 A 20,20 0 0 0 960,740"/>
    <line style="fill: none; fill-opacity:0; stroke-width: 2; stroke: #000000" x1="840" y1="760" x2="840" y2="780"/>
    <line style="fill: none; fill-opacity:0; stroke-width: 2; stroke: #000000" x1="980" y1="760" x2="980" y2="780"/>
    <path style="fill: none; fill-opacity:0; stroke-width: 2; stroke: #000000" d="M 840,780 A 20,20 0 0 0 860,800"/>
    <path style="fill: none; fill-opacity:0; stroke-width: 2; stroke: #000000" d="M 960,800 A 20,20 0 0 0 980,780"/>
    <text font-size="12.7998" style="fill: #000000;text-anchor:middle;font-family:sans-serif;font-style:normal;font-weight:normal" x="910" y="765.881">
      <tspan x="910" y="765.881">Wait for Item</tspan>
      <tspan x="910" y="781.881">Drop(s)</tspan>
    </text>
  </g>
  <g>
    <rect style="fill: #ffffff" x="700" y="220" width="100" height="60"/>
    <path style="fill: #ffffff" d="M 700,220 A 20,20 0 0 0 680,240 L 700,240 z"/>
    <path style="fill: #ffffff" d="M 820,240 A 20,20 0 0 0 800,220 L 800,240 z"/>
    <rect style="fill: #ffffff" x="680" y="240" width="140" height="20"/>
    <path style="fill: #ffffff" d="M 680,260 A 20,20 0 0 0 700,280 L 700,260 z"/>
    <path style="fill: #ffffff" d="M 800,280 A 20,20 0 0 0 820,260 L 800,260 z"/>
    <line style="fill: none; fill-opacity:0; stroke-width: 2; stroke: #000000" x1="700" y1="220" x2="800" y2="220"/>
    <line style="fill: none; fill-opacity:0; stroke-width: 2; stroke: #000000" x1="700" y1="280" x2="800" y2="280"/>
    <path style="fill: none; fill-opacity:0; stroke-width: 2; stroke: #000000" d="M 700,220 A 20,20 0 0 0 680,240"/>
    <path style="fill: none; fill-opacity:0; stroke-width: 2; stroke: #000000" d="M 820,240 A 20,20 0 0 0 800,220"/>
    <line style="fill: none; fill-opacity:0; stroke-width: 2; stroke: #000000" x1="680" y1="240" x2="680" y2="260"/>
    <line style="fill: none; fill-opacity:0; stroke-width: 2; stroke: #000000" x1="820" y1="240" x2="820" y2="260"/>
    <path style="fill: none; fill-opacity:0; stroke-width: 2; stroke: #000000" d="M 680,260 A 20,20 0 0 0 700,280"/>
    <path style="fill: none; fill-opacity:0; stroke-width: 2; stroke: #000000" d="M 800,280 A 20,20 0 0 0 820,260"/>
    <text font-size="12.7998" style="fill: #000000;text-anchor:middle;font-family:sans-serif;font-style:normal;font-weight:normal" x="750" y="253.881">
      <tspan x="750" y="253.881">Try Collect Block</tspan>
    </text>
  </g>
  <g>
    <rect style="fill: #ffffff" x="700" y="-20" width="100" height="60"/>
    <path style="fill: #ffffff" d="M 700,-20 A 20,20 0 0 0 680,-2.44929e-15 L 700,0 z"/>
    <path style="fill: #ffffff" d="M 820,0 A 20,20 0 0 0 800,-20 L 800,0 z"/>
    <rect style="fill: #ffffff" x="680" y="0" width="140" height="20"/>
    <path style="fill: #ffffff" d="M 680,20 A 20,20 0 0 0 700,40 L 700,20 z"/>
    <path style="fill: #ffffff" d="M 800,40 A 20,20 0 0 0 820,20 L 800,20 z"/>
    <line style="fill: none; fill-opacity:0; stroke-width: 2; stroke: #000000" x1="700" y1="-20" x2="800" y2="-20"/>
    <line style="fill: none; fill-opacity:0; stroke-width: 2; stroke: #000000" x1="700" y1="40" x2="800" y2="40"/>
    <path style="fill: none; fill-opacity:0; stroke-width: 2; stroke: #000000" d="M 700,-20 A 20,20 0 0 0 680,-2.44929e-15"/>
    <path style="fill: none; fill-opacity:0; stroke-width: 2; stroke: #000000" d="M 820,0 A 20,20 0 0 0 800,-20"/>
    <line style="fill: none; fill-opacity:0; stroke-width: 2; stroke: #000000" x1="680" y1="0" x2="680" y2="20"/>
    <line style="fill: none; fill-opacity:0; stroke-width: 2; stroke: #000000" x1="820" y1="0" x2="820" y2="20"/>
    <path style="fill: none; fill-opacity:0; stroke-width: 2; stroke: #000000" d="M 680,20 A 20,20 0 0 0 700,40"/>
    <path style="fill: none; fill-opacity:0; stroke-width: 2; stroke: #000000" d="M 800,40 A 20,20 0 0 0 820,20"/>
    <text font-size="12.7998" style="fill: #000000;text-anchor:middle;font-family:sans-serif;font-style:normal;font-weight:normal" x="750" y="13.8811">
      <tspan x="750" y="13.8811">Collect Resource</tspan>
    </text>
  </g>
  <g>
    <rect style="fill: #ffffff" x="700" y="100" width="100" height="60"/>
    <path style="fill: #ffffff" d="M 700,100 A 20,20 0 0 0 680,120 L 700,120 z"/>
    <path style="fill: #ffffff" d="M 820,120 A 20,20 0 0 0 800,100 L 800,120 z"/>
    <rect style="fill: #ffffff" x="680" y="120" width="140" height="20"/>
    <path style="fill: #ffffff" d="M 680,140 A 20,20 0 0 0 700,160 L 700,140 z"/>
    <path style="fill: #ffffff" d="M 800,160 A 20,20 0 0 0 820,140 L 800,140 z"/>
    <line style="fill: none; fill-opacity:0; stroke-width: 2; stroke: #000000" x1="700" y1="100" x2="800" y2="100"/>
    <line style="fill: none; fill-opacity:0; stroke-width: 2; stroke: #000000" x1="700" y1="160" x2="800" y2="160"/>
    <path style="fill: none; fill-opacity:0; stroke-width: 2; stroke: #000000" d="M 700,100 A 20,20 0 0 0 680,120"/>
    <path style="fill: none; fill-opacity:0; stroke-width: 2; stroke: #000000" d="M 820,120 A 20,20 0 0 0 800,100"/>
    <line style="fill: none; fill-opacity:0; stroke-width: 2; stroke: #000000" x1="680" y1="120" x2="680" y2="140"/>
    <line style="fill: none; fill-opacity:0; stroke-width: 2; stroke: #000000" x1="820" y1="120" x2="820" y2="140"/>
    <path style="fill: none; fill-opacity:0; stroke-width: 2; stroke: #000000" d="M 680,140 A 20,20 0 0 0 700,160"/>
    <path style="fill: none; fill-opacity:0; stroke-width: 2; stroke: #000000" d="M 800,160 A 20,20 0 0 0 820,140"/>
    <text font-size="12.7998" style="fill: #000000;text-anchor:middle;font-family:sans-serif;font-style:normal;font-weight:normal" x="750" y="125.881">
      <tspan x="750" y="125.881">Find Resource</tspan>
      <tspan x="750" y="141.881">Blocks Nearby</tspan>
    </text>
  </g>
  <g>
    <rect style="fill: #ffffff" x="860" y="540" width="100" height="60"/>
    <path style="fill: #ffffff" d="M 860,540 A 20,20 0 0 0 840,560 L 860,560 z"/>
    <path style="fill: #ffffff" d="M 980,560 A 20,20 0 0 0 960,540 L 960,560 z"/>
    <rect style="fill: #ffffff" x="840" y="560" width="140" height="20"/>
    <path style="fill: #ffffff" d="M 840,580 A 20,20 0 0 0 860,600 L 860,580 z"/>
    <path style="fill: #ffffff" d="M 960,600 A 20,20 0 0 0 980,580 L 960,580 z"/>
    <line style="fill: none; fill-opacity:0; stroke-width: 2; stroke: #000000" x1="860" y1="540" x2="960" y2="540"/>
    <line style="fill: none; fill-opacity:0; stroke-width: 2; stroke: #000000" x1="860" y1="600" x2="960" y2="600"/>
    <path style="fill: none; fill-opacity:0; stroke-width: 2; stroke: #000000" d="M 860,540 A 20,20 0 0 0 840,560"/>
    <path style="fill: none; fill-opacity:0; stroke-width: 2; stroke: #000000" d="M 980,560 A 20,20 0 0 0 960,540"/>
    <line style="fill: none; fill-opacity:0; stroke-width: 2; stroke: #000000" x1="840" y1="560" x2="840" y2="580"/>
    <line style="fill: none; fill-opacity:0; stroke-width: 2; stroke: #000000" x1="980" y1="560" x2="980" y2="580"/>
    <path style="fill: none; fill-opacity:0; stroke-width: 2; stroke: #000000" d="M 840,580 A 20,20 0 0 0 860,600"/>
    <path style="fill: none; fill-opacity:0; stroke-width: 2; stroke: #000000" d="M 960,600 A 20,20 0 0 0 980,580"/>
    <text font-size="12.7998" style="fill: #000000;text-anchor:middle;font-family:sans-serif;font-style:normal;font-weight:normal" x="910" y="573.881">
      <tspan x="910" y="573.881">Move To Block</tspan>
    </text>
  </g>
  <g>
    <line style="fill: none; fill-opacity:0; stroke-width: 2; stroke: #000000" x1="750" y1="41.0034" x2="750" y2="89.2605"/>
    <polygon style="fill: #000000" points="750,96.7605 745,86.7605 750,89.2605 755,86.7605 "/>
    <polygon style="fill: none; fill-opacity:0; stroke-width: 2; stroke: #000000" points="750,96.7605 745,86.7605 750,89.2605 755,86.7605 "/>
  </g>
  <g>
    <line style="fill: none; fill-opacity:0; stroke-width: 2; stroke: #000000" x1="750" y1="161.003" x2="750" y2="209.261"/>
    <polygon style="fill: #000000" points="750,216.761 745,206.761 750,209.261 755,206.761 "/>
    <polygon style="fill: none; fill-opacity:0; stroke-width: 2; stroke: #000000" points="750,216.761 745,206.761 750,209.261 755,206.761 "/>
  </g>
  <text font-size="12.7998" style="fill: #000000;text-anchor:start;font-family:sans-serif;font-style:normal;font-weight:normal" x="760" y="200">
    <tspan x="760" y="200">For Each Block</tspan>
  </text>
  <text font-size="12.7998" style="fill: #000000;text-anchor:start;font-family:sans-serif;font-style:normal;font-weight:normal" x="720" y="360">
    <tspan x="720" y="360">Can Break Block</tspan>
  </text>
  <g>
    <rect style="fill: #ffffff" x="860" y="440" width="100" height="60"/>
    <path style="fill: #ffffff" d="M 860,440 A 20,20 0 0 0 840,460 L 860,460 z"/>
    <path style="fill: #ffffff" d="M 980,460 A 20,20 0 0 0 960,440 L 960,460 z"/>
    <rect style="fill: #ffffff" x="840" y="460" width="140" height="20"/>
    <path style="fill: #ffffff" d="M 840,480 A 20,20 0 0 0 860,500 L 860,480 z"/>
    <path style="fill: #ffffff" d="M 960,500 A 20,20 0 0 0 980,480 L 960,480 z"/>
    <line style="fill: none; fill-opacity:0; stroke-width: 2; stroke: #000000" x1="860" y1="440" x2="960" y2="440"/>
    <line style="fill: none; fill-opacity:0; stroke-width: 2; stroke: #000000" x1="860" y1="500" x2="960" y2="500"/>
    <path style="fill: none; fill-opacity:0; stroke-width: 2; stroke: #000000" d="M 860,440 A 20,20 0 0 0 840,460"/>
    <path style="fill: none; fill-opacity:0; stroke-width: 2; stroke: #000000" d="M 980,460 A 20,20 0 0 0 960,440"/>
    <line style="fill: none; fill-opacity:0; stroke-width: 2; stroke: #000000" x1="840" y1="460" x2="840" y2="480"/>
    <line style="fill: none; fill-opacity:0; stroke-width: 2; stroke: #000000" x1="980" y1="460" x2="980" y2="480"/>
    <path style="fill: none; fill-opacity:0; stroke-width: 2; stroke: #000000" d="M 840,480 A 20,20 0 0 0 860,500"/>
    <path style="fill: none; fill-opacity:0; stroke-width: 2; stroke: #000000" d="M 960,500 A 20,20 0 0 0 980,480"/>
    <text font-size="12.7998" style="fill: #000000;text-anchor:middle;font-family:sans-serif;font-style:normal;font-weight:normal" x="910" y="473.881">
      <tspan x="910" y="473.881">Collect Block</tspan>
    </text>
  </g>
  <g>
    <line style="fill: none; fill-opacity:0; stroke-width: 2; stroke: #000000" x1="910" y1="500.981" x2="910" y2="529.282"/>
    <polygon style="fill: #000000" points="910,536.782 905,526.782 910,529.282 915,526.782 "/>
    <polygon style="fill: none; fill-opacity:0; stroke-width: 2; stroke: #000000" points="910,536.782 905,526.782 910,529.282 915,526.782 "/>
  </g>
  <g>
    <line style="fill: none; fill-opacity:0; stroke-width: 2; stroke: #000000" x1="772.549" y1="281.005" x2="881.725" y2="431.121"/>
    <polygon style="fill: #000000" points="886.136,437.187 876.211,432.04 881.725,431.121 884.298,426.159 "/>
    <polygon style="fill: none; fill-opacity:0; stroke-width: 2; stroke: #000000" points="886.136,437.187 876.211,432.04 881.725,431.121 884.298,426.159 "/>
  </g>
  <g>
    <rect style="fill: #ffffff" x="460" y="360" width="100" height="60"/>
    <path style="fill: #ffffff" d="M 460,360 A 20,20 0 0 0 440,380 L 460,380 z"/>
    <path style="fill: #ffffff" d="M 580,380 A 20,20 0 0 0 560,360 L 560,380 z"/>
    <rect style="fill: #ffffff" x="440" y="380" width="140" height="20"/>
    <path style="fill: #ffffff" d="M 440,400 A 20,20 0 0 0 460,420 L 460,400 z"/>
    <path style="fill: #ffffff" d="M 560,420 A 20,20 0 0 0 580,400 L 560,400 z"/>
    <line style="fill: none; fill-opacity:0; stroke-width: 2; stroke: #000000" x1="460" y1="360" x2="560" y2="360"/>
    <line style="fill: none; fill-opacity:0; stroke-width: 2; stroke: #000000" x1="460" y1="420" x2="560" y2="420"/>
    <path style="fill: none; fill-opacity:0; stroke-width: 2; stroke: #000000" d="M 460,360 A 20,20 0 0 0 440,380"/>
    <path style="fill: none; fill-opacity:0; stroke-width: 2; stroke: #000000" d="M 580,380 A 20,20 0 0 0 560,360"/>
    <line style="fill: none; fill-opacity:0; stroke-width: 2; stroke: #000000" x1="440" y1="380" x2="440" y2="400"/>
    <line style="fill: none; fill-opacity:0; stroke-width: 2; stroke: #000000" x1="580" y1="380" x2="580" y2="400"/>
    <path style="fill: none; fill-opacity:0; stroke-width: 2; stroke: #000000" d="M 440,400 A 20,20 0 0 0 460,420"/>
    <path style="fill: none; fill-opacity:0; stroke-width: 2; stroke: #000000" d="M 560,420 A 20,20 0 0 0 580,400"/>
    <text font-size="12.7998" style="fill: #000000;text-anchor:middle;font-family:sans-serif;font-style:normal;font-weight:normal" x="510" y="393.881">
      <tspan x="510" y="393.881">Create Tool</tspan>
    </text>
  </g>
  <g>
    <rect style="fill: #ffffff" x="460" y="460" width="100" height="60"/>
    <path style="fill: #ffffff" d="M 460,460 A 20,20 0 0 0 440,480 L 460,480 z"/>
    <path style="fill: #ffffff" d="M 580,480 A 20,20 0 0 0 560,460 L 560,480 z"/>
    <rect style="fill: #ffffff" x="440" y="480" width="140" height="20"/>
    <path style="fill: #ffffff" d="M 440,500 A 20,20 0 0 0 460,520 L 460,500 z"/>
    <path style="fill: #ffffff" d="M 560,520 A 20,20 0 0 0 580,500 L 560,500 z"/>
    <line style="fill: none; fill-opacity:0; stroke-width: 2; stroke: #000000" x1="460" y1="460" x2="560" y2="460"/>
    <line style="fill: none; fill-opacity:0; stroke-width: 2; stroke: #000000" x1="460" y1="520" x2="560" y2="520"/>
    <path style="fill: none; fill-opacity:0; stroke-width: 2; stroke: #000000" d="M 460,460 A 20,20 0 0 0 440,480"/>
    <path style="fill: none; fill-opacity:0; stroke-width: 2; stroke: #000000" d="M 580,480 A 20,20 0 0 0 560,460"/>
    <line style="fill: none; fill-opacity:0; stroke-width: 2; stroke: #000000" x1="440" y1="480" x2="440" y2="500"/>
    <line style="fill: none; fill-opacity:0; stroke-width: 2; stroke: #000000" x1="580" y1="480" x2="580" y2="500"/>
    <path style="fill: none; fill-opacity:0; stroke-width: 2; stroke: #000000" d="M 440,500 A 20,20 0 0 0 460,520"/>
    <path style="fill: none; fill-opacity:0; stroke-width: 2; stroke: #000000" d="M 560,520 A 20,20 0 0 0 580,500"/>
    <text font-size="12.7998" style="fill: #000000;text-anchor:middle;font-family:sans-serif;font-style:normal;font-weight:normal" x="510" y="493.881">
      <tspan x="510" y="493.881">Get Recipe</tspan>
    </text>
  </g>
  <g>
    <rect style="fill: #ffffff" x="700" y="-140" width="100" height="60"/>
    <path style="fill: #ffffff" d="M 700,-140 A 20,20 0 0 0 680,-120 L 700,-120 z"/>
    <path style="fill: #ffffff" d="M 820,-120 A 20,20 0 0 0 800,-140 L 800,-120 z"/>
    <rect style="fill: #ffffff" x="680" y="-120" width="140" height="20"/>
    <path style="fill: #ffffff" d="M 680,-100 A 20,20 0 0 0 700,-80 L 700,-100 z"/>
    <path style="fill: #ffffff" d="M 800,-80 A 20,20 0 0 0 820,-100 L 800,-100 z"/>
    <line style="fill: none; fill-opacity:0; stroke-width: 2; stroke: #000000" x1="700" y1="-140" x2="800" y2="-140"/>
    <line style="fill: none; fill-opacity:0; stroke-width: 2; stroke: #000000" x1="700" y1="-80" x2="800" y2="-80"/>
    <path style="fill: none; fill-opacity:0; stroke-width: 2; stroke: #000000" d="M 700,-140 A 20,20 0 0 0 680,-120"/>
    <path style="fill: none; fill-opacity:0; stroke-width: 2; stroke: #000000" d="M 820,-120 A 20,20 0 0 0 800,-140"/>
    <line style="fill: none; fill-opacity:0; stroke-width: 2; stroke: #000000" x1="680" y1="-120" x2="680" y2="-100"/>
    <line style="fill: none; fill-opacity:0; stroke-width: 2; stroke: #000000" x1="820" y1="-120" x2="820" y2="-100"/>
    <path style="fill: none; fill-opacity:0; stroke-width: 2; stroke: #000000" d="M 680,-100 A 20,20 0 0 0 700,-80"/>
    <path style="fill: none; fill-opacity:0; stroke-width: 2; stroke: #000000" d="M 800,-80 A 20,20 0 0 0 820,-100"/>
    <text font-size="12.7998" style="fill: #000000;text-anchor:middle;font-family:sans-serif;font-style:normal;font-weight:normal" x="750" y="-106.119">
      <tspan x="750" y="-106.119">Find Resource</tspan>
    </text>
  </g>
  <g>
    <line style="fill: none; fill-opacity:0; stroke-width: 2; stroke: #000000" x1="750" y1="-78.9966" x2="750" y2="-30.7395"/>
    <polygon style="fill: #000000" points="750,-23.2395 745,-33.2395 750,-30.7395 755,-33.2395 "/>
    <polygon style="fill: none; fill-opacity:0; stroke-width: 2; stroke: #000000" points="750,-23.2395 745,-33.2395 750,-30.7395 755,-33.2395 "/>
  </g>
  <g>
    <rect style="fill: #ffffff" x="460" y="560" width="100" height="60"/>
    <path style="fill: #ffffff" d="M 460,560 A 20,20 0 0 0 440,580 L 460,580 z"/>
    <path style="fill: #ffffff" d="M 580,580 A 20,20 0 0 0 560,560 L 560,580 z"/>
    <rect style="fill: #ffffff" x="440" y="580" width="140" height="20"/>
    <path style="fill: #ffffff" d="M 440,600 A 20,20 0 0 0 460,620 L 460,600 z"/>
    <path style="fill: #ffffff" d="M 560,620 A 20,20 0 0 0 580,600 L 560,600 z"/>
    <line style="fill: none; fill-opacity:0; stroke-width: 2; stroke: #000000" x1="460" y1="560" x2="560" y2="560"/>
    <line style="fill: none; fill-opacity:0; stroke-width: 2; stroke: #000000" x1="460" y1="620" x2="560" y2="620"/>
    <path style="fill: none; fill-opacity:0; stroke-width: 2; stroke: #000000" d="M 460,560 A 20,20 0 0 0 440,580"/>
    <path style="fill: none; fill-opacity:0; stroke-width: 2; stroke: #000000" d="M 580,580 A 20,20 0 0 0 560,560"/>
    <line style="fill: none; fill-opacity:0; stroke-width: 2; stroke: #000000" x1="440" y1="580" x2="440" y2="600"/>
    <line style="fill: none; fill-opacity:0; stroke-width: 2; stroke: #000000" x1="580" y1="580" x2="580" y2="600"/>
    <path style="fill: none; fill-opacity:0; stroke-width: 2; stroke: #000000" d="M 440,600 A 20,20 0 0 0 460,620"/>
    <path style="fill: none; fill-opacity:0; stroke-width: 2; stroke: #000000" d="M 560,620 A 20,20 0 0 0 580,600"/>
    <text font-size="12.7998" style="fill: #000000;text-anchor:middle;font-family:sans-serif;font-style:normal;font-weight:normal" x="510" y="585.881">
      <tspan x="510" y="585.881">Get Recipe</tspan>
      <tspan x="510" y="601.881">Resources</tspan>
    </text>
  </g>
  <g>
    <line style="fill: none; fill-opacity:0; stroke-width: 2; stroke: #000000" x1="510" y1="420.981" x2="510" y2="449.282"/>
    <polygon style="fill: #000000" points="510,456.782 505,446.782 510,449.282 515,446.782 "/>
    <polygon style="fill: none; fill-opacity:0; stroke-width: 2; stroke: #000000" points="510,456.782 505,446.782 510,449.282 515,446.782 "/>
  </g>
  <g>
    <line style="fill: none; fill-opacity:0; stroke-width: 2; stroke: #000000" x1="510" y1="520.981" x2="510" y2="549.282"/>
    <polygon style="fill: #000000" points="510,556.782 505,546.782 510,549.282 515,546.782 "/>
    <polygon style="fill: none; fill-opacity:0; stroke-width: 2; stroke: #000000" points="510,556.782 505,546.782 510,549.282 515,546.782 "/>
  </g>
  <g>
    <path style="fill: none; fill-opacity:0; stroke-width: 2; stroke: #000000" d="M 669.316,-109.59 A 379.918,379.918 0 0 0 467.737,559.309"/>
    <polygon style="fill: #000000" points="676.774,-110.357 667.24,-104.518 669.302,-109.714 666.383,-114.481 "/>
    <polygon style="fill: none; fill-opacity:0; stroke-width: 2; stroke: #000000" points="676.774,-110.357 667.24,-104.518 669.302,-109.714 666.383,-114.481 "/>
  </g>
  <g>
    <line style="fill: none; fill-opacity:0; stroke-width: 2; stroke: #000000" x1="696.885" y1="280.984" x2="571.525" y2="354.11"/>
    <polygon style="fill: #000000" points="565.047,357.889 571.165,348.532 571.525,354.11 576.204,357.17 "/>
    <polygon style="fill: none; fill-opacity:0; stroke-width: 2; stroke: #000000" points="565.047,357.889 571.165,348.532 571.525,354.11 576.204,357.17 "/>
  </g>
  <text font-size="12.7998" style="fill: #000000;text-anchor:end;font-family:sans-serif;font-style:normal;font-weight:normal" x="620" y="320">
    <tspan x="620" y="320">Can't Break Block</tspan>
  </text>
  <g>
    <rect style="fill: #ffffff" x="1080" y="60" width="100" height="60"/>
    <path style="fill: #ffffff" d="M 1080,60 A 20,20 0 0 0 1060,80 L 1080,80 z"/>
    <path style="fill: #ffffff" d="M 1200,80 A 20,20 0 0 0 1180,60 L 1180,80 z"/>
    <rect style="fill: #ffffff" x="1060" y="80" width="140" height="20"/>
    <path style="fill: #ffffff" d="M 1060,100 A 20,20 0 0 0 1080,120 L 1080,100 z"/>
    <path style="fill: #ffffff" d="M 1180,120 A 20,20 0 0 0 1200,100 L 1180,100 z"/>
    <line style="fill: none; fill-opacity:0; stroke-width: 2; stroke: #000000" x1="1080" y1="60" x2="1180" y2="60"/>
    <line style="fill: none; fill-opacity:0; stroke-width: 2; stroke: #000000" x1="1080" y1="120" x2="1180" y2="120"/>
    <path style="fill: none; fill-opacity:0; stroke-width: 2; stroke: #000000" d="M 1080,60 A 20,20 0 0 0 1060,80"/>
    <path style="fill: none; fill-opacity:0; stroke-width: 2; stroke: #000000" d="M 1200,80 A 20,20 0 0 0 1180,60"/>
    <line style="fill: none; fill-opacity:0; stroke-width: 2; stroke: #000000" x1="1060" y1="80" x2="1060" y2="100"/>
    <line style="fill: none; fill-opacity:0; stroke-width: 2; stroke: #000000" x1="1200" y1="80" x2="1200" y2="100"/>
    <path style="fill: none; fill-opacity:0; stroke-width: 2; stroke: #000000" d="M 1060,100 A 20,20 0 0 0 1080,120"/>
    <path style="fill: none; fill-opacity:0; stroke-width: 2; stroke: #000000" d="M 1180,120 A 20,20 0 0 0 1200,100"/>
    <text font-size="12.7998" style="fill: #000000;text-anchor:middle;font-family:sans-serif;font-style:normal;font-weight:normal" x="1130" y="85.8811">
      <tspan x="1130" y="85.8811">Get Natural</tspan>
      <tspan x="1130" y="101.881">Resource Location</tspan>
    </text>
  </g>
  <g>
    <line style="fill: none; fill-opacity:0; stroke-width: 2; stroke: #000000" x1="820.995" y1="122.527" x2="1049.32" y2="98.4924"/>
    <polygon style="fill: #000000" points="1056.78,97.7072 1047.36,103.727 1049.32,98.4924 1046.31,93.7815 "/>
    <polygon style="fill: none; fill-opacity:0; stroke-width: 2; stroke: #000000" points="1056.78,97.7072 1047.36,103.727 1049.32,98.4924 1046.31,93.7815 "/>
  </g>
  <text font-size="12.7998" style="fill: #000000;text-anchor:start;font-family:sans-serif;font-style:normal;font-weight:normal" x="860" y="100">
    <tspan x="860" y="100">No Nearby Blocks</tspan>
  </text>
  <g>
    <rect style="fill: #ffffff" x="1080" y="160" width="100" height="60"/>
    <path style="fill: #ffffff" d="M 1080,160 A 20,20 0 0 0 1060,180 L 1080,180 z"/>
    <path style="fill: #ffffff" d="M 1200,180 A 20,20 0 0 0 1180,160 L 1180,180 z"/>
    <rect style="fill: #ffffff" x="1060" y="180" width="140" height="20"/>
    <path style="fill: #ffffff" d="M 1060,200 A 20,20 0 0 0 1080,220 L 1080,200 z"/>
    <path style="fill: #ffffff" d="M 1180,220 A 20,20 0 0 0 1200,200 L 1180,200 z"/>
    <line style="fill: none; fill-opacity:0; stroke-width: 2; stroke: #000000" x1="1080" y1="160" x2="1180" y2="160"/>
    <line style="fill: none; fill-opacity:0; stroke-width: 2; stroke: #000000" x1="1080" y1="220" x2="1180" y2="220"/>
    <path style="fill: none; fill-opacity:0; stroke-width: 2; stroke: #000000" d="M 1080,160 A 20,20 0 0 0 1060,180"/>
    <path style="fill: none; fill-opacity:0; stroke-width: 2; stroke: #000000" d="M 1200,180 A 20,20 0 0 0 1180,160"/>
    <line style="fill: none; fill-opacity:0; stroke-width: 2; stroke: #000000" x1="1060" y1="180" x2="1060" y2="200"/>
    <line style="fill: none; fill-opacity:0; stroke-width: 2; stroke: #000000" x1="1200" y1="180" x2="1200" y2="200"/>
    <path style="fill: none; fill-opacity:0; stroke-width: 2; stroke: #000000" d="M 1060,200 A 20,20 0 0 0 1080,220"/>
    <path style="fill: none; fill-opacity:0; stroke-width: 2; stroke: #000000" d="M 1180,220 A 20,20 0 0 0 1200,200"/>
    <text font-size="12.7998" style="fill: #000000;text-anchor:middle;font-family:sans-serif;font-style:normal;font-weight:normal" x="1130" y="185.881">
      <tspan x="1130" y="185.881">Move To</tspan>
      <tspan x="1130" y="201.881">Location</tspan>
    </text>
  </g>
  <g>
    <rect style="fill: #ffffff" x="1080" y="260" width="100" height="60"/>
    <path style="fill: #ffffff" d="M 1080,260 A 20,20 0 0 0 1060,280 L 1080,280 z"/>
    <path style="fill: #ffffff" d="M 1200,280 A 20,20 0 0 0 1180,260 L 1180,280 z"/>
    <rect style="fill: #ffffff" x="1060" y="280" width="140" height="20"/>
    <path style="fill: #ffffff" d="M 1060,300 A 20,20 0 0 0 1080,320 L 1080,300 z"/>
    <path style="fill: #ffffff" d="M 1180,320 A 20,20 0 0 0 1200,300 L 1180,300 z"/>
    <line style="fill: none; fill-opacity:0; stroke-width: 2; stroke: #000000" x1="1080" y1="260" x2="1180" y2="260"/>
    <line style="fill: none; fill-opacity:0; stroke-width: 2; stroke: #000000" x1="1080" y1="320" x2="1180" y2="320"/>
    <path style="fill: none; fill-opacity:0; stroke-width: 2; stroke: #000000" d="M 1080,260 A 20,20 0 0 0 1060,280"/>
    <path style="fill: none; fill-opacity:0; stroke-width: 2; stroke: #000000" d="M 1200,280 A 20,20 0 0 0 1180,260"/>
    <line style="fill: none; fill-opacity:0; stroke-width: 2; stroke: #000000" x1="1060" y1="280" x2="1060" y2="300"/>
    <line style="fill: none; fill-opacity:0; stroke-width: 2; stroke: #000000" x1="1200" y1="280" x2="1200" y2="300"/>
    <path style="fill: none; fill-opacity:0; stroke-width: 2; stroke: #000000" d="M 1060,300 A 20,20 0 0 0 1080,320"/>
    <path style="fill: none; fill-opacity:0; stroke-width: 2; stroke: #000000" d="M 1180,320 A 20,20 0 0 0 1200,300"/>
    <text font-size="12.7998" style="fill: #000000;text-anchor:middle;font-family:sans-serif;font-style:normal;font-weight:normal" x="1130" y="285.881">
      <tspan x="1130" y="285.881">Move To</tspan>
      <tspan x="1130" y="301.881">Dimension</tspan>
    </text>
  </g>
  <g>
    <line style="fill: none; fill-opacity:0; stroke-width: 2; stroke: #000000" x1="1130" y1="120.981" x2="1130" y2="149.282"/>
    <polygon style="fill: #000000" points="1130,156.782 1125,146.782 1130,149.282 1135,146.782 "/>
    <polygon style="fill: none; fill-opacity:0; stroke-width: 2; stroke: #000000" points="1130,156.782 1125,146.782 1130,149.282 1135,146.782 "/>
  </g>
  <g>
    <line style="fill: none; fill-opacity:0; stroke-width: 2; stroke: #000000" x1="1130" y1="220.981" x2="1130" y2="249.282"/>
    <polygon style="fill: #000000" points="1130,256.782 1125,246.782 1130,249.282 1135,246.782 "/>
    <polygon style="fill: none; fill-opacity:0; stroke-width: 2; stroke: #000000" points="1130,256.782 1125,246.782 1130,249.282 1135,246.782 "/>
  </g>
  <g>
    <line style="fill: none; fill-opacity:0; stroke-width: 2; stroke: #000000" x1="1059.01" y1="178.79" x2="830.612" y2="142.728"/>
    <polygon style="fill: #000000" points="823.204,141.558 833.861,138.179 830.612,142.728 832.301,148.057 "/>
    <polygon style="fill: none; fill-opacity:0; stroke-width: 2; stroke: #000000" points="823.204,141.558 833.861,138.179 830.612,142.728 832.301,148.057 "/>
  </g>
  <g>
    <line style="fill: none; fill-opacity:0; stroke-width: 2; stroke: #000000" x1="1130" y1="259.019" x2="1130" y2="230.718"/>
    <polygon style="fill: #000000" points="1130,223.218 1135,233.218 1130,230.718 1125,233.218 "/>
    <polygon style="fill: none; fill-opacity:0; stroke-width: 2; stroke: #000000" points="1130,223.218 1135,233.218 1130,230.718 1125,233.218 "/>
  </g>
  <g>
    <path style="fill: none; fill-opacity:0; stroke-width: 2; stroke: #000000" d="M 670.438,-86.3069 A 180.294,180.294 0 0 0 678.997,230.925"/>
    <polygon style="fill: #000000" points="677.001,-89.9165 670.33,-80.9445 670.307,-86.5347 665.821,-89.8702 "/>
    <polygon style="fill: none; fill-opacity:0; stroke-width: 2; stroke: #000000" points="677.001,-89.9165 670.33,-80.9445 670.307,-86.5347 665.821,-89.8702 "/>
  </g>
  <g>
    <path style="fill: none; fill-opacity:0; stroke-width: 2; stroke: #000000" d="M 936.218,439.035 A 136.572,136.572 0 0 0 830.707,231.092"/>
    <polygon style="fill: #000000" points="823.234,230.694 833.269,225.765 830.734,230.747 833.198,235.764 "/>
    <polygon style="fill: none; fill-opacity:0; stroke-width: 2; stroke: #000000" points="823.234,230.694 833.269,225.765 830.734,230.747 833.198,235.764 "/>
  </g>
  <g>
    <line style="fill: none; fill-opacity:0; stroke-width: 2; stroke: #000000" x1="910" y1="600.981" x2="910" y2="629.282"/>
    <polygon style="fill: #000000" points="910,636.782 905,626.782 910,629.282 915,626.782 "/>
    <polygon style="fill: none; fill-opacity:0; stroke-width: 2; stroke: #000000" points="910,636.782 905,626.782 910,629.282 915,626.782 "/>
  </g>
  <g>
    <line style="fill: none; fill-opacity:0; stroke-width: 2; stroke: #000000" x1="910" y1="700.981" x2="910" y2="729.282"/>
    <polygon style="fill: #000000" points="910,736.782 905,726.782 910,729.282 915,726.782 "/>
    <polygon style="fill: none; fill-opacity:0; stroke-width: 2; stroke: #000000" points="910,736.782 905,726.782 910,729.282 915,726.782 "/>
  </g>
  <g>
    <line style="fill: none; fill-opacity:0; stroke-width: 2; stroke: #000000" x1="910" y1="800.981" x2="910" y2="829.282"/>
    <polygon style="fill: #000000" points="910,836.782 905,826.782 910,829.282 915,826.782 "/>
    <polygon style="fill: none; fill-opacity:0; stroke-width: 2; stroke: #000000" points="910,836.782 905,826.782 910,829.282 915,826.782 "/>
  </g>
  <g>
    <line style="fill: none; fill-opacity:0; stroke-width: 2; stroke: #000000" x1="910" y1="900.981" x2="910" y2="929.282"/>
    <polygon style="fill: #000000" points="910,936.782 905,926.782 910,929.282 915,926.782 "/>
    <polygon style="fill: none; fill-opacity:0; stroke-width: 2; stroke: #000000" points="910,936.782 905,926.782 910,929.282 915,926.782 "/>
  </g>
  <g>
    <path style="fill: none; fill-opacity:0; stroke-width: 2; stroke: #000000" d="M 963.394,939.057 A 378.31,378.31 0 0 0 830.472,259.172"/>
    <polygon style="fill: #000000" points="823.142,257.597 833.921,254.629 830.499,259.05 831.983,264.44 "/>
    <polygon style="fill: none; fill-opacity:0; stroke-width: 2; stroke: #000000" points="823.142,257.597 833.921,254.629 830.499,259.05 831.983,264.44 "/>
  </g>
  <g>
    <rect style="fill: #ffffff" x="1260" y="260" width="100" height="60"/>
    <path style="fill: #ffffff" d="M 1260,260 A 20,20 0 0 0 1240,280 L 1260,280 z"/>
    <path style="fill: #ffffff" d="M 1380,280 A 20,20 0 0 0 1360,260 L 1360,280 z"/>
    <rect style="fill: #ffffff" x="1240" y="280" width="140" height="20"/>
    <path style="fill: #ffffff" d="M 1240,300 A 20,20 0 0 0 1260,320 L 1260,300 z"/>
    <path style="fill: #ffffff" d="M 1360,320 A 20,20 0 0 0 1380,300 L 1360,300 z"/>
    <line style="fill: none; fill-opacity:0; stroke-width: 2; stroke: #000000" x1="1260" y1="260" x2="1360" y2="260"/>
    <line style="fill: none; fill-opacity:0; stroke-width: 2; stroke: #000000" x1="1260" y1="320" x2="1360" y2="320"/>
    <path style="fill: none; fill-opacity:0; stroke-width: 2; stroke: #000000" d="M 1260,260 A 20,20 0 0 0 1240,280"/>
    <path style="fill: none; fill-opacity:0; stroke-width: 2; stroke: #000000" d="M 1380,280 A 20,20 0 0 0 1360,260"/>
    <line style="fill: none; fill-opacity:0; stroke-width: 2; stroke: #000000" x1="1240" y1="280" x2="1240" y2="300"/>
    <line style="fill: none; fill-opacity:0; stroke-width: 2; stroke: #000000" x1="1380" y1="280" x2="1380" y2="300"/>
    <path style="fill: none; fill-opacity:0; stroke-width: 2; stroke: #000000" d="M 1240,300 A 20,20 0 0 0 1260,320"/>
    <path style="fill: none; fill-opacity:0; stroke-width: 2; stroke: #000000" d="M 1360,320 A 20,20 0 0 0 1380,300"/>
    <text font-size="12.7998" style="fill: #000000;text-anchor:middle;font-family:sans-serif;font-style:normal;font-weight:normal" x="1310" y="293.881">
      <tspan x="1310" y="293.881">...</tspan>
    </text>
  </g>
  <g>
    <line style="fill: none; fill-opacity:0; stroke-width: 2; stroke: #000000" x1="1200.66" y1="290" x2="1229.6" y2="290"/>
    <polygon style="fill: #000000" points="1237.1,290 1227.1,295 1229.6,290 1227.1,285 "/>
    <polygon style="fill: none; fill-opacity:0; stroke-width: 2; stroke: #000000" points="1237.1,290 1227.1,295 1229.6,290 1227.1,285 "/>
  </g>
  <g>
    <line style="fill: none; fill-opacity:0; stroke-width: 2; stroke: #000000" x1="1239.34" y1="290" x2="1210.4" y2="290"/>
    <polygon style="fill: #000000" points="1202.9,290 1212.9,285 1210.4,290 1212.9,295 "/>
    <polygon style="fill: none; fill-opacity:0; stroke-width: 2; stroke: #000000" points="1202.9,290 1212.9,285 1210.4,290 1212.9,295 "/>
  </g>
</svg>
